M48
; DRILL file {KiCad (6.0.1)} date Sun Feb 20 01:23:11 2022
; FORMAT={-:-/ absolute / metric / decimal}
; #@! TF.CreationDate,2022-02-20T01:23:11-08:00
; #@! TF.GenerationSoftware,Kicad,Pcbnew,(6.0.1)
; #@! TF.FileFunction,Plated,1,2,PTH
FMAT,2
METRIC
; #@! TA.AperFunction,Plated,PTH,ViaDrill
T1C0.400
; #@! TA.AperFunction,Plated,PTH,ComponentDrill
T2C1.000
; #@! TA.AperFunction,Plated,PTH,ComponentDrill
T3C1.470
%
G90
G05
T1
X75.753Y-139.275
X82.583Y-138.55
X85.158Y-136.445
X85.683Y-134.545
X86.058Y-141.72
X86.508Y-140.271
X86.833Y-122.945
X87.333Y-145.045
X89.683Y-133.42
X91.133Y-132.695
X91.608Y-153.62
X92.921Y-122.896
X92.921Y-131.97
X93.353Y-133.485
X93.646Y-124.357
X93.783Y-175.42
X94.193Y-121.405
X94.233Y-114.385
X94.489Y-138.751
X95.033Y-173.575
X96.341Y-147.635
X96.764Y-112.813
X96.783Y-132.145
X97.953Y-113.538
X98.458Y-152.98
X98.833Y-135.295
X99.251Y-147.482
X99.251Y-155.42
X100.533Y-146.645
X100.743Y-149.125
X100.933Y-130.945
X102.003Y-151.638
X102.233Y-173.125
X102.333Y-133.095
X102.546Y-138.994
X105.433Y-138.745
X107.071Y-136.994
X107.393Y-144.205
X111.773Y-152.495
X123.243Y-140.635
X137.53Y-141.243
X156.58Y-141.243
X189.873Y-171.835
X207.275Y-171.275
X223.285Y-160.322
X242.305Y-113.538
X253.268Y-114.401
X275.643Y-151.638
X294.713Y-152.555
T2
X114.983Y-138.751
X117.523Y-138.751
X120.063Y-138.751
T3
X70.855Y-107.905
X75.618Y-126.955
X75.618Y-184.105
X77.205Y-105.365
X77.999Y-146.005
X81.968Y-124.415
X81.968Y-181.565
X82.761Y-165.055
X84.349Y-143.465
X89.111Y-162.515
X89.905Y-107.905
X96.255Y-105.365
X99.43Y-126.955
X104.193Y-146.005
X105.78Y-124.415
X108.955Y-107.905
X110.543Y-143.465
X113.718Y-165.055
X115.305Y-105.365
X118.48Y-126.955
X120.068Y-162.515
X123.243Y-146.005
X123.243Y-184.105
X124.83Y-124.415
X128.005Y-107.905
X129.593Y-143.465
X129.593Y-181.565
X132.768Y-165.055
X134.355Y-105.365
X137.53Y-126.955
X139.118Y-162.515
X142.293Y-146.005
X143.88Y-124.415
X147.055Y-107.905
X148.643Y-143.465
X151.818Y-165.055
X153.405Y-105.365
X156.58Y-126.955
X158.168Y-162.515
X161.343Y-146.005
X162.93Y-124.415
X166.105Y-107.905
X167.693Y-143.465
X170.868Y-165.055
X172.455Y-105.365
X175.63Y-126.955
X177.218Y-162.515
X180.393Y-146.005
X181.98Y-124.415
X185.155Y-107.905
X186.743Y-143.465
X189.918Y-165.055
X191.505Y-105.365
X194.68Y-126.955
X196.268Y-162.515
X199.443Y-146.005
X201.03Y-124.415
X204.205Y-107.905
X204.205Y-184.105
X205.793Y-143.465
X208.968Y-165.055
X210.555Y-105.365
X210.555Y-181.565
X213.73Y-126.955
X215.318Y-162.515
X218.493Y-146.005
X220.08Y-124.415
X223.255Y-107.905
X224.843Y-143.465
X228.018Y-165.055
X229.605Y-105.365
X232.78Y-126.955
X234.368Y-162.515
X237.543Y-146.005
X239.13Y-124.415
X242.305Y-107.905
X243.893Y-143.465
X247.068Y-165.055
X248.655Y-105.365
X251.83Y-126.955
X253.418Y-162.515
X256.593Y-146.005
X258.18Y-124.415
X261.355Y-107.905
X262.943Y-143.465
X266.118Y-165.055
X267.705Y-105.365
X270.88Y-126.955
X272.468Y-162.515
X275.643Y-146.005
X277.23Y-124.415
X280.405Y-107.905
X281.993Y-143.465
X285.168Y-165.055
X285.168Y-184.105
X286.755Y-105.365
X289.93Y-126.955
X291.518Y-162.515
X291.518Y-181.565
X294.693Y-146.005
X296.28Y-124.415
X299.455Y-107.905
X301.043Y-143.465
X305.805Y-105.365
X308.98Y-126.955
X311.361Y-165.055
X315.33Y-124.415
X317.711Y-162.515
X318.505Y-107.905
X324.855Y-105.365
X325.649Y-146.005
X331.999Y-143.465
X332.793Y-126.955
X332.793Y-184.105
X337.555Y-107.905
X337.555Y-165.055
X339.143Y-124.415
X339.143Y-181.565
X343.905Y-105.365
X343.905Y-162.515
T0
M30
