%FSLAX45Y45*%
G04 Gerber Fmt 4.5, Leading zero omitted, Abs format (unit mm)*
G04 Created by KiCad (PCBNEW (6.0.1)) date 2022-02-20 01:23:16*
%MOMM*%
%LPD*%
G01*
G04 APERTURE LIST*
%TA.AperFunction,Profile*%
%ADD10C,0.100000*%
%TD*%
%ADD11C,0.200000*%
%ADD12C,0.040000*%
%ADD13C,0.100000*%
%ADD14C,0.147000*%
G04 APERTURE END LIST*
D10*
X9530254Y-17712000D02*
G75*
G03*
X9292129Y-17950125I0J-238125D01*
G01*
X28900000Y-17550000D02*
X11750000Y-17550000D01*
X33510000Y-10171375D02*
X33765000Y-10171375D01*
X25240000Y-10171375D02*
X25170000Y-10171375D01*
X30247129Y-19299500D02*
X30247129Y-17950125D01*
X27870000Y-19537625D02*
G75*
G03*
X27220000Y-19537625I-325000J0D01*
G01*
X13745000Y-19537625D02*
X13405000Y-19537625D01*
X16590000Y-10171375D02*
X25170000Y-10171375D01*
X9054004Y-19537625D02*
X8974629Y-19537625D01*
X11850000Y-12005000D02*
X30226000Y-12005000D01*
X7895000Y-10171375D02*
X8095000Y-10171375D01*
X11355879Y-17950125D02*
X11355879Y-19299500D01*
X6831504Y-10171375D02*
G75*
G03*
X6593379Y-10409500I0J-238125D01*
G01*
X32310879Y-19299500D02*
G75*
G03*
X32549004Y-19537625I238125J0D01*
G01*
X31225000Y-10171375D02*
X31805000Y-10171375D01*
X9292129Y-19299500D02*
X9292129Y-17950125D01*
X33765000Y-10171375D02*
X34771504Y-10171375D01*
X26035000Y-10171375D02*
X31225000Y-10171375D01*
X28200000Y-19537625D02*
X28205000Y-19537625D01*
X28321000Y-19537625D02*
X30009004Y-19537625D01*
X26035000Y-10171375D02*
X25890000Y-10171375D01*
X6593379Y-19299500D02*
X6593379Y-10409500D01*
X6593379Y-19299500D02*
G75*
G03*
X6831504Y-19537625I238125J0D01*
G01*
X14395000Y-19537625D02*
X27220000Y-19537625D01*
X9530254Y-17712000D02*
X11117754Y-17712000D01*
X34771504Y-19537625D02*
G75*
G03*
X35009629Y-19299500I0J238125D01*
G01*
X13335000Y-19537625D02*
X11594004Y-19537625D01*
X31805000Y-10171375D02*
X32525000Y-10171375D01*
X27870000Y-19537625D02*
X28200000Y-19537625D01*
X14395000Y-19537625D02*
G75*
G03*
X13745000Y-19537625I-325000J0D01*
G01*
X30226000Y-12005000D02*
G75*
G03*
X30226000Y-11905000I0J50000D01*
G01*
X32310879Y-17950125D02*
X32310879Y-19299500D01*
X30009004Y-19537625D02*
G75*
G03*
X30247129Y-19299500I0J238125D01*
G01*
X11750000Y-17450000D02*
G75*
G03*
X11750000Y-17550000I0J-50000D01*
G01*
X32525000Y-10171375D02*
X32860000Y-10171375D01*
X35009629Y-10409500D02*
X35009629Y-19299500D01*
X15715000Y-10171375D02*
G75*
G03*
X16365000Y-10171375I325000J0D01*
G01*
X28900000Y-17550000D02*
G75*
G03*
X28900000Y-17450000I0J50000D01*
G01*
X13405000Y-19537625D02*
X13335000Y-19537625D01*
X8095000Y-10171375D02*
G75*
G03*
X8745000Y-10171375I325000J0D01*
G01*
X32860000Y-10171375D02*
G75*
G03*
X33510000Y-10171375I325000J0D01*
G01*
X9054004Y-19537625D02*
G75*
G03*
X9292129Y-19299500I0J238125D01*
G01*
X8974629Y-19537625D02*
X6831504Y-19537625D01*
X35009629Y-10409500D02*
G75*
G03*
X34771504Y-10171375I-238125J0D01*
G01*
X28205000Y-19537625D02*
X28321000Y-19537625D01*
X7895000Y-10171375D02*
X6831504Y-10171375D01*
X30485254Y-17712000D02*
G75*
G03*
X30247129Y-17950125I0J-238125D01*
G01*
X30226000Y-11905000D02*
X11850000Y-11905000D01*
X32549004Y-19537625D02*
X34771504Y-19537625D01*
X8905000Y-10171375D02*
X15660000Y-10171375D01*
X16590000Y-10171375D02*
X16365000Y-10171375D01*
X11355879Y-17950125D02*
G75*
G03*
X11117754Y-17712000I-238125J0D01*
G01*
X11355879Y-19299500D02*
G75*
G03*
X11594004Y-19537625I238125J0D01*
G01*
X8745000Y-10171375D02*
X8905000Y-10171375D01*
X11750000Y-17450000D02*
X28900000Y-17450000D01*
X32072754Y-17712000D02*
X30485254Y-17712000D01*
X15715000Y-10171375D02*
X15660000Y-10171375D01*
X11850000Y-11905000D02*
G75*
G03*
X11850000Y-12005000I0J-50000D01*
G01*
X25240000Y-10171375D02*
G75*
G03*
X25890000Y-10171375I325000J0D01*
G01*
X32310879Y-17950125D02*
G75*
G03*
X32072754Y-17712000I-238125J0D01*
G01*
D11*
D12*
X7555254Y-13907500D02*
X7595254Y-13947500D01*
X7595254Y-13907500D02*
X7555254Y-13947500D01*
X8238254Y-13835050D02*
X8278254Y-13875050D01*
X8278254Y-13835050D02*
X8238254Y-13875050D01*
X8495754Y-13624500D02*
X8535754Y-13664500D01*
X8535754Y-13624500D02*
X8495754Y-13664500D01*
X8548254Y-13434500D02*
X8588254Y-13474500D01*
X8588254Y-13434500D02*
X8548254Y-13474500D01*
X8585754Y-14152000D02*
X8625754Y-14192000D01*
X8625754Y-14152000D02*
X8585754Y-14192000D01*
X8630754Y-14007099D02*
X8670754Y-14047099D01*
X8670754Y-14007099D02*
X8630754Y-14047099D01*
X8663254Y-12274500D02*
X8703254Y-12314500D01*
X8703254Y-12274500D02*
X8663254Y-12314500D01*
X8713254Y-14484500D02*
X8753254Y-14524500D01*
X8753254Y-14484500D02*
X8713254Y-14524500D01*
X8948254Y-13322000D02*
X8988254Y-13362000D01*
X8988254Y-13322000D02*
X8948254Y-13362000D01*
X9093254Y-13249500D02*
X9133254Y-13289500D01*
X9133254Y-13249500D02*
X9093254Y-13289500D01*
X9140754Y-15342000D02*
X9180754Y-15382000D01*
X9180754Y-15342000D02*
X9140754Y-15382000D01*
X9272129Y-12269625D02*
X9312129Y-12309625D01*
X9312129Y-12269625D02*
X9272129Y-12309625D01*
X9272129Y-13177050D02*
X9312129Y-13217050D01*
X9312129Y-13177050D02*
X9272129Y-13217050D01*
X9315296Y-13328542D02*
X9355296Y-13368542D01*
X9355296Y-13328542D02*
X9315296Y-13368542D01*
X9344579Y-12415730D02*
X9384579Y-12455730D01*
X9384579Y-12415730D02*
X9344579Y-12455730D01*
X9358254Y-17522000D02*
X9398254Y-17562000D01*
X9398254Y-17522000D02*
X9358254Y-17562000D01*
X9399254Y-12120500D02*
X9439254Y-12160500D01*
X9439254Y-12120500D02*
X9399254Y-12160500D01*
X9403254Y-11418500D02*
X9443254Y-11458500D01*
X9443254Y-11418500D02*
X9403254Y-11458500D01*
X9428879Y-13855125D02*
X9468879Y-13895125D01*
X9468879Y-13855125D02*
X9428879Y-13895125D01*
X9483254Y-17337500D02*
X9523254Y-17377500D01*
X9523254Y-17337500D02*
X9483254Y-17377500D01*
X9614065Y-14743546D02*
X9654065Y-14783546D01*
X9654065Y-14743546D02*
X9614065Y-14783546D01*
X9656412Y-11261342D02*
X9696412Y-11301342D01*
X9696412Y-11261342D02*
X9656412Y-11301342D01*
X9658254Y-13194500D02*
X9698254Y-13234500D01*
X9698254Y-13194500D02*
X9658254Y-13234500D01*
X9775254Y-11333792D02*
X9815254Y-11373792D01*
X9815254Y-11333792D02*
X9775254Y-11373792D01*
X9825813Y-15277990D02*
X9865813Y-15317990D01*
X9865813Y-15277990D02*
X9825813Y-15317990D01*
X9863254Y-13509500D02*
X9903254Y-13549500D01*
X9903254Y-13509500D02*
X9863254Y-13549500D01*
X9905129Y-14728250D02*
X9945129Y-14768250D01*
X9945129Y-14728250D02*
X9905129Y-14768250D01*
X9905129Y-15522000D02*
X9945129Y-15562000D01*
X9945129Y-15522000D02*
X9905129Y-15562000D01*
X10033254Y-14644500D02*
X10073254Y-14684500D01*
X10073254Y-14644500D02*
X10033254Y-14684500D01*
X10054254Y-14892500D02*
X10094254Y-14932500D01*
X10094254Y-14892500D02*
X10054254Y-14932500D01*
X10073254Y-13074500D02*
X10113254Y-13114500D01*
X10113254Y-13074500D02*
X10073254Y-13114500D01*
X10180254Y-15143792D02*
X10220254Y-15183792D01*
X10220254Y-15143792D02*
X10180254Y-15183792D01*
X10203254Y-17292500D02*
X10243254Y-17332500D01*
X10243254Y-17292500D02*
X10203254Y-17332500D01*
X10213254Y-13289500D02*
X10253254Y-13329500D01*
X10253254Y-13289500D02*
X10213254Y-13329500D01*
X10234641Y-13879450D02*
X10274641Y-13919450D01*
X10274641Y-13879450D02*
X10234641Y-13919450D01*
X10523254Y-13854500D02*
X10563254Y-13894500D01*
X10563254Y-13854500D02*
X10523254Y-13894500D01*
X10687052Y-13679450D02*
X10727052Y-13719450D01*
X10727052Y-13679450D02*
X10687052Y-13719450D01*
X10719254Y-14400500D02*
X10759254Y-14440500D01*
X10759254Y-14400500D02*
X10719254Y-14440500D01*
X11157254Y-15229500D02*
X11197254Y-15269500D01*
X11197254Y-15229500D02*
X11157254Y-15269500D01*
X12304254Y-14043500D02*
X12344254Y-14083500D01*
X12344254Y-14043500D02*
X12304254Y-14083500D01*
X13733004Y-14104250D02*
X13773004Y-14144250D01*
X13773004Y-14104250D02*
X13733004Y-14144250D01*
X15638004Y-14104250D02*
X15678004Y-14144250D01*
X15678004Y-14104250D02*
X15638004Y-14144250D01*
X18967254Y-17163500D02*
X19007254Y-17203500D01*
X19007254Y-17163500D02*
X18967254Y-17203500D01*
X20707500Y-17107500D02*
X20747500Y-17147500D01*
X20747500Y-17107500D02*
X20707500Y-17147500D01*
X22308504Y-16012250D02*
X22348504Y-16052250D01*
X22348504Y-16012250D02*
X22308504Y-16052250D01*
X24210504Y-11333792D02*
X24250504Y-11373792D01*
X24250504Y-11333792D02*
X24210504Y-11373792D01*
X25306830Y-11420075D02*
X25346830Y-11460075D01*
X25346830Y-11420075D02*
X25306830Y-11460075D01*
X27544254Y-15143792D02*
X27584254Y-15183792D01*
X27584254Y-15143792D02*
X27544254Y-15183792D01*
X29451254Y-15235500D02*
X29491254Y-15275500D01*
X29491254Y-15235500D02*
X29451254Y-15275500D01*
D13*
X11548254Y-13875125D02*
G75*
G03*
X11548254Y-13875125I-50000J0D01*
G01*
X11802254Y-13875125D02*
G75*
G03*
X11802254Y-13875125I-50000J0D01*
G01*
X12056254Y-13875125D02*
G75*
G03*
X12056254Y-13875125I-50000J0D01*
G01*
D14*
X7085504Y-10717000D02*
X7085504Y-10864000D01*
X7012004Y-10790500D02*
X7159004Y-10790500D01*
X7561754Y-12622000D02*
X7561754Y-12769000D01*
X7488254Y-12695500D02*
X7635254Y-12695500D01*
X7561754Y-18337000D02*
X7561754Y-18484000D01*
X7488254Y-18410500D02*
X7635254Y-18410500D01*
X7720504Y-10463000D02*
X7720504Y-10610000D01*
X7647004Y-10536500D02*
X7794004Y-10536500D01*
X7799879Y-14527000D02*
X7799879Y-14674000D01*
X7726379Y-14600500D02*
X7873379Y-14600500D01*
X8196754Y-12368000D02*
X8196754Y-12515000D01*
X8123254Y-12441500D02*
X8270254Y-12441500D01*
X8196754Y-18083000D02*
X8196754Y-18230000D01*
X8123254Y-18156500D02*
X8270254Y-18156500D01*
X8276129Y-16432000D02*
X8276129Y-16579000D01*
X8202629Y-16505500D02*
X8349629Y-16505500D01*
X8434879Y-14273000D02*
X8434879Y-14420000D01*
X8361379Y-14346500D02*
X8508379Y-14346500D01*
X8911129Y-16178000D02*
X8911129Y-16325000D01*
X8837629Y-16251500D02*
X8984629Y-16251500D01*
X8990504Y-10717000D02*
X8990504Y-10864000D01*
X8917004Y-10790500D02*
X9064004Y-10790500D01*
X9625504Y-10463000D02*
X9625504Y-10610000D01*
X9552004Y-10536500D02*
X9699004Y-10536500D01*
X9943004Y-12622000D02*
X9943004Y-12769000D01*
X9869504Y-12695500D02*
X10016504Y-12695500D01*
X10419254Y-14527000D02*
X10419254Y-14674000D01*
X10345754Y-14600500D02*
X10492754Y-14600500D01*
X10578004Y-12368000D02*
X10578004Y-12515000D01*
X10504504Y-12441500D02*
X10651504Y-12441500D01*
X10895504Y-10717000D02*
X10895504Y-10864000D01*
X10822004Y-10790500D02*
X10969004Y-10790500D01*
X11054254Y-14273000D02*
X11054254Y-14420000D01*
X10980754Y-14346500D02*
X11127754Y-14346500D01*
X11371754Y-16432000D02*
X11371754Y-16579000D01*
X11298254Y-16505500D02*
X11445254Y-16505500D01*
X11530504Y-10463000D02*
X11530504Y-10610000D01*
X11457004Y-10536500D02*
X11604004Y-10536500D01*
X11848004Y-12622000D02*
X11848004Y-12769000D01*
X11774504Y-12695500D02*
X11921504Y-12695500D01*
X12006754Y-16178000D02*
X12006754Y-16325000D01*
X11933254Y-16251500D02*
X12080254Y-16251500D01*
X12324254Y-14527000D02*
X12324254Y-14674000D01*
X12250754Y-14600500D02*
X12397754Y-14600500D01*
X12324254Y-18337000D02*
X12324254Y-18484000D01*
X12250754Y-18410500D02*
X12397754Y-18410500D01*
X12483004Y-12368000D02*
X12483004Y-12515000D01*
X12409504Y-12441500D02*
X12556504Y-12441500D01*
X12800504Y-10717000D02*
X12800504Y-10864000D01*
X12727004Y-10790500D02*
X12874004Y-10790500D01*
X12959254Y-14273000D02*
X12959254Y-14420000D01*
X12885754Y-14346500D02*
X13032754Y-14346500D01*
X12959254Y-18083000D02*
X12959254Y-18230000D01*
X12885754Y-18156500D02*
X13032754Y-18156500D01*
X13276754Y-16432000D02*
X13276754Y-16579000D01*
X13203254Y-16505500D02*
X13350254Y-16505500D01*
X13435504Y-10463000D02*
X13435504Y-10610000D01*
X13362004Y-10536500D02*
X13509004Y-10536500D01*
X13753004Y-12622000D02*
X13753004Y-12769000D01*
X13679504Y-12695500D02*
X13826504Y-12695500D01*
X13911754Y-16178000D02*
X13911754Y-16325000D01*
X13838254Y-16251500D02*
X13985254Y-16251500D01*
X14229254Y-14527000D02*
X14229254Y-14674000D01*
X14155754Y-14600500D02*
X14302754Y-14600500D01*
X14388004Y-12368000D02*
X14388004Y-12515000D01*
X14314504Y-12441500D02*
X14461504Y-12441500D01*
X14705504Y-10717000D02*
X14705504Y-10864000D01*
X14632004Y-10790500D02*
X14779004Y-10790500D01*
X14864254Y-14273000D02*
X14864254Y-14420000D01*
X14790754Y-14346500D02*
X14937754Y-14346500D01*
X15181754Y-16432000D02*
X15181754Y-16579000D01*
X15108254Y-16505500D02*
X15255254Y-16505500D01*
X15340504Y-10463000D02*
X15340504Y-10610000D01*
X15267004Y-10536500D02*
X15414004Y-10536500D01*
X15658004Y-12622000D02*
X15658004Y-12769000D01*
X15584504Y-12695500D02*
X15731504Y-12695500D01*
X15816754Y-16178000D02*
X15816754Y-16325000D01*
X15743254Y-16251500D02*
X15890254Y-16251500D01*
X16134254Y-14527000D02*
X16134254Y-14674000D01*
X16060754Y-14600500D02*
X16207754Y-14600500D01*
X16293004Y-12368000D02*
X16293004Y-12515000D01*
X16219504Y-12441500D02*
X16366504Y-12441500D01*
X16610504Y-10717000D02*
X16610504Y-10864000D01*
X16537004Y-10790500D02*
X16684004Y-10790500D01*
X16769254Y-14273000D02*
X16769254Y-14420000D01*
X16695754Y-14346500D02*
X16842754Y-14346500D01*
X17086754Y-16432000D02*
X17086754Y-16579000D01*
X17013254Y-16505500D02*
X17160254Y-16505500D01*
X17245504Y-10463000D02*
X17245504Y-10610000D01*
X17172004Y-10536500D02*
X17319004Y-10536500D01*
X17563004Y-12622000D02*
X17563004Y-12769000D01*
X17489504Y-12695500D02*
X17636504Y-12695500D01*
X17721754Y-16178000D02*
X17721754Y-16325000D01*
X17648254Y-16251500D02*
X17795254Y-16251500D01*
X18039254Y-14527000D02*
X18039254Y-14674000D01*
X17965754Y-14600500D02*
X18112754Y-14600500D01*
X18198004Y-12368000D02*
X18198004Y-12515000D01*
X18124504Y-12441500D02*
X18271504Y-12441500D01*
X18515504Y-10717000D02*
X18515504Y-10864000D01*
X18442004Y-10790500D02*
X18589004Y-10790500D01*
X18674254Y-14273000D02*
X18674254Y-14420000D01*
X18600754Y-14346500D02*
X18747754Y-14346500D01*
X18991754Y-16432000D02*
X18991754Y-16579000D01*
X18918254Y-16505500D02*
X19065254Y-16505500D01*
X19150504Y-10463000D02*
X19150504Y-10610000D01*
X19077004Y-10536500D02*
X19224004Y-10536500D01*
X19468004Y-12622000D02*
X19468004Y-12769000D01*
X19394504Y-12695500D02*
X19541504Y-12695500D01*
X19626754Y-16178000D02*
X19626754Y-16325000D01*
X19553254Y-16251500D02*
X19700254Y-16251500D01*
X19944254Y-14527000D02*
X19944254Y-14674000D01*
X19870754Y-14600500D02*
X20017754Y-14600500D01*
X20103004Y-12368000D02*
X20103004Y-12515000D01*
X20029504Y-12441500D02*
X20176504Y-12441500D01*
X20420504Y-10717000D02*
X20420504Y-10864000D01*
X20347004Y-10790500D02*
X20494004Y-10790500D01*
X20420504Y-18337000D02*
X20420504Y-18484000D01*
X20347004Y-18410500D02*
X20494004Y-18410500D01*
X20579254Y-14273000D02*
X20579254Y-14420000D01*
X20505754Y-14346500D02*
X20652754Y-14346500D01*
X20896754Y-16432000D02*
X20896754Y-16579000D01*
X20823254Y-16505500D02*
X20970254Y-16505500D01*
X21055504Y-10463000D02*
X21055504Y-10610000D01*
X20982004Y-10536500D02*
X21129004Y-10536500D01*
X21055504Y-18083000D02*
X21055504Y-18230000D01*
X20982004Y-18156500D02*
X21129004Y-18156500D01*
X21373004Y-12622000D02*
X21373004Y-12769000D01*
X21299504Y-12695500D02*
X21446504Y-12695500D01*
X21531754Y-16178000D02*
X21531754Y-16325000D01*
X21458254Y-16251500D02*
X21605254Y-16251500D01*
X21849254Y-14527000D02*
X21849254Y-14674000D01*
X21775754Y-14600500D02*
X21922754Y-14600500D01*
X22008004Y-12368000D02*
X22008004Y-12515000D01*
X21934504Y-12441500D02*
X22081504Y-12441500D01*
X22325504Y-10717000D02*
X22325504Y-10864000D01*
X22252004Y-10790500D02*
X22399004Y-10790500D01*
X22484254Y-14273000D02*
X22484254Y-14420000D01*
X22410754Y-14346500D02*
X22557754Y-14346500D01*
X22801754Y-16432000D02*
X22801754Y-16579000D01*
X22728254Y-16505500D02*
X22875254Y-16505500D01*
X22960504Y-10463000D02*
X22960504Y-10610000D01*
X22887004Y-10536500D02*
X23034004Y-10536500D01*
X23278004Y-12622000D02*
X23278004Y-12769000D01*
X23204504Y-12695500D02*
X23351504Y-12695500D01*
X23436754Y-16178000D02*
X23436754Y-16325000D01*
X23363254Y-16251500D02*
X23510254Y-16251500D01*
X23754254Y-14527000D02*
X23754254Y-14674000D01*
X23680754Y-14600500D02*
X23827754Y-14600500D01*
X23913004Y-12368000D02*
X23913004Y-12515000D01*
X23839504Y-12441500D02*
X23986504Y-12441500D01*
X24230504Y-10717000D02*
X24230504Y-10864000D01*
X24157004Y-10790500D02*
X24304004Y-10790500D01*
X24389254Y-14273000D02*
X24389254Y-14420000D01*
X24315754Y-14346500D02*
X24462754Y-14346500D01*
X24706754Y-16432000D02*
X24706754Y-16579000D01*
X24633254Y-16505500D02*
X24780254Y-16505500D01*
X24865504Y-10463000D02*
X24865504Y-10610000D01*
X24792004Y-10536500D02*
X24939004Y-10536500D01*
X25183004Y-12622000D02*
X25183004Y-12769000D01*
X25109504Y-12695500D02*
X25256504Y-12695500D01*
X25341754Y-16178000D02*
X25341754Y-16325000D01*
X25268254Y-16251500D02*
X25415254Y-16251500D01*
X25659254Y-14527000D02*
X25659254Y-14674000D01*
X25585754Y-14600500D02*
X25732754Y-14600500D01*
X25818004Y-12368000D02*
X25818004Y-12515000D01*
X25744504Y-12441500D02*
X25891504Y-12441500D01*
X26135504Y-10717000D02*
X26135504Y-10864000D01*
X26062004Y-10790500D02*
X26209004Y-10790500D01*
X26294254Y-14273000D02*
X26294254Y-14420000D01*
X26220754Y-14346500D02*
X26367754Y-14346500D01*
X26611754Y-16432000D02*
X26611754Y-16579000D01*
X26538254Y-16505500D02*
X26685254Y-16505500D01*
X26770504Y-10463000D02*
X26770504Y-10610000D01*
X26697004Y-10536500D02*
X26844004Y-10536500D01*
X27088004Y-12622000D02*
X27088004Y-12769000D01*
X27014504Y-12695500D02*
X27161504Y-12695500D01*
X27246754Y-16178000D02*
X27246754Y-16325000D01*
X27173254Y-16251500D02*
X27320254Y-16251500D01*
X27564254Y-14527000D02*
X27564254Y-14674000D01*
X27490754Y-14600500D02*
X27637754Y-14600500D01*
X27723004Y-12368000D02*
X27723004Y-12515000D01*
X27649504Y-12441500D02*
X27796504Y-12441500D01*
X28040504Y-10717000D02*
X28040504Y-10864000D01*
X27967004Y-10790500D02*
X28114004Y-10790500D01*
X28199254Y-14273000D02*
X28199254Y-14420000D01*
X28125754Y-14346500D02*
X28272754Y-14346500D01*
X28516754Y-16432000D02*
X28516754Y-16579000D01*
X28443254Y-16505500D02*
X28590254Y-16505500D01*
X28516754Y-18337000D02*
X28516754Y-18484000D01*
X28443254Y-18410500D02*
X28590254Y-18410500D01*
X28675504Y-10463000D02*
X28675504Y-10610000D01*
X28602004Y-10536500D02*
X28749004Y-10536500D01*
X28993004Y-12622000D02*
X28993004Y-12769000D01*
X28919504Y-12695500D02*
X29066504Y-12695500D01*
X29151754Y-16178000D02*
X29151754Y-16325000D01*
X29078254Y-16251500D02*
X29225254Y-16251500D01*
X29151754Y-18083000D02*
X29151754Y-18230000D01*
X29078254Y-18156500D02*
X29225254Y-18156500D01*
X29469254Y-14527000D02*
X29469254Y-14674000D01*
X29395754Y-14600500D02*
X29542754Y-14600500D01*
X29628004Y-12368000D02*
X29628004Y-12515000D01*
X29554504Y-12441500D02*
X29701504Y-12441500D01*
X29945504Y-10717000D02*
X29945504Y-10864000D01*
X29872004Y-10790500D02*
X30019004Y-10790500D01*
X30104254Y-14273000D02*
X30104254Y-14420000D01*
X30030754Y-14346500D02*
X30177754Y-14346500D01*
X30580504Y-10463000D02*
X30580504Y-10610000D01*
X30507004Y-10536500D02*
X30654004Y-10536500D01*
X30898004Y-12622000D02*
X30898004Y-12769000D01*
X30824504Y-12695500D02*
X30971504Y-12695500D01*
X31136129Y-16432000D02*
X31136129Y-16579000D01*
X31062629Y-16505500D02*
X31209629Y-16505500D01*
X31533004Y-12368000D02*
X31533004Y-12515000D01*
X31459504Y-12441500D02*
X31606504Y-12441500D01*
X31771129Y-16178000D02*
X31771129Y-16325000D01*
X31697629Y-16251500D02*
X31844629Y-16251500D01*
X31850504Y-10717000D02*
X31850504Y-10864000D01*
X31777004Y-10790500D02*
X31924004Y-10790500D01*
X32485504Y-10463000D02*
X32485504Y-10610000D01*
X32412004Y-10536500D02*
X32559004Y-10536500D01*
X32564879Y-14527000D02*
X32564879Y-14674000D01*
X32491379Y-14600500D02*
X32638379Y-14600500D01*
X33199879Y-14273000D02*
X33199879Y-14420000D01*
X33126379Y-14346500D02*
X33273379Y-14346500D01*
X33279254Y-12622000D02*
X33279254Y-12769000D01*
X33205754Y-12695500D02*
X33352754Y-12695500D01*
X33279254Y-18337000D02*
X33279254Y-18484000D01*
X33205754Y-18410500D02*
X33352754Y-18410500D01*
X33755504Y-10717000D02*
X33755504Y-10864000D01*
X33682004Y-10790500D02*
X33829004Y-10790500D01*
X33755504Y-16432000D02*
X33755504Y-16579000D01*
X33682004Y-16505500D02*
X33829004Y-16505500D01*
X33914254Y-12368000D02*
X33914254Y-12515000D01*
X33840754Y-12441500D02*
X33987754Y-12441500D01*
X33914254Y-18083000D02*
X33914254Y-18230000D01*
X33840754Y-18156500D02*
X33987754Y-18156500D01*
X34390504Y-10463000D02*
X34390504Y-10610000D01*
X34317004Y-10536500D02*
X34464004Y-10536500D01*
X34390504Y-16178000D02*
X34390504Y-16325000D01*
X34317004Y-16251500D02*
X34464004Y-16251500D01*
D11*
X6845998Y-19853101D02*
X6845998Y-19653101D01*
X6893617Y-19653101D01*
X6922189Y-19662625D01*
X6941236Y-19681673D01*
X6950760Y-19700720D01*
X6960284Y-19738815D01*
X6960284Y-19767387D01*
X6950760Y-19805482D01*
X6941236Y-19824530D01*
X6922189Y-19843577D01*
X6893617Y-19853101D01*
X6845998Y-19853101D01*
X7045998Y-19853101D02*
X7045998Y-19719768D01*
X7045998Y-19757863D02*
X7055522Y-19738815D01*
X7065046Y-19729292D01*
X7084093Y-19719768D01*
X7103141Y-19719768D01*
X7169808Y-19853101D02*
X7169808Y-19719768D01*
X7169808Y-19653101D02*
X7160284Y-19662625D01*
X7169808Y-19672149D01*
X7179331Y-19662625D01*
X7169808Y-19653101D01*
X7169808Y-19672149D01*
X7293617Y-19853101D02*
X7274570Y-19843577D01*
X7265046Y-19824530D01*
X7265046Y-19653101D01*
X7398379Y-19853101D02*
X7379331Y-19843577D01*
X7369808Y-19824530D01*
X7369808Y-19653101D01*
X7626951Y-19853101D02*
X7626951Y-19653101D01*
X7693617Y-19795958D01*
X7760284Y-19653101D01*
X7760284Y-19853101D01*
X7941236Y-19853101D02*
X7941236Y-19748339D01*
X7931712Y-19729292D01*
X7912665Y-19719768D01*
X7874570Y-19719768D01*
X7855522Y-19729292D01*
X7941236Y-19843577D02*
X7922189Y-19853101D01*
X7874570Y-19853101D01*
X7855522Y-19843577D01*
X7845998Y-19824530D01*
X7845998Y-19805482D01*
X7855522Y-19786435D01*
X7874570Y-19776911D01*
X7922189Y-19776911D01*
X7941236Y-19767387D01*
X8036474Y-19719768D02*
X8036474Y-19919768D01*
X8036474Y-19729292D02*
X8055522Y-19719768D01*
X8093617Y-19719768D01*
X8112665Y-19729292D01*
X8122189Y-19738815D01*
X8131712Y-19757863D01*
X8131712Y-19815006D01*
X8122189Y-19834054D01*
X8112665Y-19843577D01*
X8093617Y-19853101D01*
X8055522Y-19853101D01*
X8036474Y-19843577D01*
X8217427Y-19834054D02*
X8226951Y-19843577D01*
X8217427Y-19853101D01*
X8207903Y-19843577D01*
X8217427Y-19834054D01*
X8217427Y-19853101D01*
X8217427Y-19729292D02*
X8226951Y-19738815D01*
X8217427Y-19748339D01*
X8207903Y-19738815D01*
X8217427Y-19729292D01*
X8217427Y-19748339D01*
D12*
X6548379Y-20162625D02*
X6588379Y-20202625D01*
X6588379Y-20162625D02*
X6548379Y-20202625D01*
D11*
X6884093Y-20073101D02*
X6903141Y-20073101D01*
X6922189Y-20082625D01*
X6931712Y-20092149D01*
X6941236Y-20111196D01*
X6950760Y-20149292D01*
X6950760Y-20196911D01*
X6941236Y-20235006D01*
X6931712Y-20254054D01*
X6922189Y-20263577D01*
X6903141Y-20273101D01*
X6884093Y-20273101D01*
X6865046Y-20263577D01*
X6855522Y-20254054D01*
X6845998Y-20235006D01*
X6836474Y-20196911D01*
X6836474Y-20149292D01*
X6845998Y-20111196D01*
X6855522Y-20092149D01*
X6865046Y-20082625D01*
X6884093Y-20073101D01*
X7036474Y-20254054D02*
X7045998Y-20263577D01*
X7036474Y-20273101D01*
X7026951Y-20263577D01*
X7036474Y-20254054D01*
X7036474Y-20273101D01*
X7217427Y-20139768D02*
X7217427Y-20273101D01*
X7169808Y-20063577D02*
X7122189Y-20206435D01*
X7245998Y-20206435D01*
X7360284Y-20073101D02*
X7379331Y-20073101D01*
X7398379Y-20082625D01*
X7407903Y-20092149D01*
X7417427Y-20111196D01*
X7426951Y-20149292D01*
X7426951Y-20196911D01*
X7417427Y-20235006D01*
X7407903Y-20254054D01*
X7398379Y-20263577D01*
X7379331Y-20273101D01*
X7360284Y-20273101D01*
X7341236Y-20263577D01*
X7331712Y-20254054D01*
X7322189Y-20235006D01*
X7312665Y-20196911D01*
X7312665Y-20149292D01*
X7322189Y-20111196D01*
X7331712Y-20092149D01*
X7341236Y-20082625D01*
X7360284Y-20073101D01*
X7550760Y-20073101D02*
X7569808Y-20073101D01*
X7588855Y-20082625D01*
X7598379Y-20092149D01*
X7607903Y-20111196D01*
X7617427Y-20149292D01*
X7617427Y-20196911D01*
X7607903Y-20235006D01*
X7598379Y-20254054D01*
X7588855Y-20263577D01*
X7569808Y-20273101D01*
X7550760Y-20273101D01*
X7531712Y-20263577D01*
X7522189Y-20254054D01*
X7512665Y-20235006D01*
X7503141Y-20196911D01*
X7503141Y-20149292D01*
X7512665Y-20111196D01*
X7522189Y-20092149D01*
X7531712Y-20082625D01*
X7550760Y-20073101D01*
X7703141Y-20273101D02*
X7703141Y-20139768D01*
X7703141Y-20158815D02*
X7712665Y-20149292D01*
X7731712Y-20139768D01*
X7760284Y-20139768D01*
X7779331Y-20149292D01*
X7788855Y-20168339D01*
X7788855Y-20273101D01*
X7788855Y-20168339D02*
X7798379Y-20149292D01*
X7817427Y-20139768D01*
X7845998Y-20139768D01*
X7865046Y-20149292D01*
X7874570Y-20168339D01*
X7874570Y-20273101D01*
X7969808Y-20273101D02*
X7969808Y-20139768D01*
X7969808Y-20158815D02*
X7979331Y-20149292D01*
X7998379Y-20139768D01*
X8026951Y-20139768D01*
X8045998Y-20149292D01*
X8055522Y-20168339D01*
X8055522Y-20273101D01*
X8055522Y-20168339D02*
X8065046Y-20149292D01*
X8084093Y-20139768D01*
X8112665Y-20139768D01*
X8131712Y-20149292D01*
X8141236Y-20168339D01*
X8141236Y-20273101D01*
X8531713Y-20063577D02*
X8360284Y-20320720D01*
X8788855Y-20073101D02*
X8807903Y-20073101D01*
X8826951Y-20082625D01*
X8836474Y-20092149D01*
X8845998Y-20111196D01*
X8855522Y-20149292D01*
X8855522Y-20196911D01*
X8845998Y-20235006D01*
X8836474Y-20254054D01*
X8826951Y-20263577D01*
X8807903Y-20273101D01*
X8788855Y-20273101D01*
X8769808Y-20263577D01*
X8760284Y-20254054D01*
X8750760Y-20235006D01*
X8741236Y-20196911D01*
X8741236Y-20149292D01*
X8750760Y-20111196D01*
X8760284Y-20092149D01*
X8769808Y-20082625D01*
X8788855Y-20073101D01*
X8941236Y-20254054D02*
X8950760Y-20263577D01*
X8941236Y-20273101D01*
X8931713Y-20263577D01*
X8941236Y-20254054D01*
X8941236Y-20273101D01*
X9074570Y-20073101D02*
X9093617Y-20073101D01*
X9112665Y-20082625D01*
X9122189Y-20092149D01*
X9131713Y-20111196D01*
X9141236Y-20149292D01*
X9141236Y-20196911D01*
X9131713Y-20235006D01*
X9122189Y-20254054D01*
X9112665Y-20263577D01*
X9093617Y-20273101D01*
X9074570Y-20273101D01*
X9055522Y-20263577D01*
X9045998Y-20254054D01*
X9036474Y-20235006D01*
X9026951Y-20196911D01*
X9026951Y-20149292D01*
X9036474Y-20111196D01*
X9045998Y-20092149D01*
X9055522Y-20082625D01*
X9074570Y-20073101D01*
X9331713Y-20273101D02*
X9217427Y-20273101D01*
X9274570Y-20273101D02*
X9274570Y-20073101D01*
X9255522Y-20101673D01*
X9236474Y-20120720D01*
X9217427Y-20130244D01*
X9512665Y-20073101D02*
X9417427Y-20073101D01*
X9407903Y-20168339D01*
X9417427Y-20158815D01*
X9436474Y-20149292D01*
X9484093Y-20149292D01*
X9503141Y-20158815D01*
X9512665Y-20168339D01*
X9522189Y-20187387D01*
X9522189Y-20235006D01*
X9512665Y-20254054D01*
X9503141Y-20263577D01*
X9484093Y-20273101D01*
X9436474Y-20273101D01*
X9417427Y-20263577D01*
X9407903Y-20254054D01*
X9588855Y-20073101D02*
X9722189Y-20073101D01*
X9636474Y-20273101D01*
X9788855Y-20073101D02*
X9788855Y-20111196D01*
X9865046Y-20073101D02*
X9865046Y-20111196D01*
X10160284Y-20349292D02*
X10150760Y-20339768D01*
X10131713Y-20311196D01*
X10122189Y-20292149D01*
X10112665Y-20263577D01*
X10103141Y-20215958D01*
X10103141Y-20177863D01*
X10112665Y-20130244D01*
X10122189Y-20101673D01*
X10131713Y-20082625D01*
X10150760Y-20054054D01*
X10160284Y-20044530D01*
X10322189Y-20139768D02*
X10322189Y-20273101D01*
X10274570Y-20063577D02*
X10226951Y-20206435D01*
X10350760Y-20206435D01*
X10436474Y-20273101D02*
X10474570Y-20273101D01*
X10493617Y-20263577D01*
X10503141Y-20254054D01*
X10522189Y-20225482D01*
X10531713Y-20187387D01*
X10531713Y-20111196D01*
X10522189Y-20092149D01*
X10512665Y-20082625D01*
X10493617Y-20073101D01*
X10455522Y-20073101D01*
X10436474Y-20082625D01*
X10426951Y-20092149D01*
X10417427Y-20111196D01*
X10417427Y-20158815D01*
X10426951Y-20177863D01*
X10436474Y-20187387D01*
X10455522Y-20196911D01*
X10493617Y-20196911D01*
X10512665Y-20187387D01*
X10522189Y-20177863D01*
X10531713Y-20158815D01*
X10769808Y-20273101D02*
X10769808Y-20073101D01*
X10855522Y-20273101D02*
X10855522Y-20168339D01*
X10845998Y-20149292D01*
X10826951Y-20139768D01*
X10798379Y-20139768D01*
X10779332Y-20149292D01*
X10769808Y-20158815D01*
X10979332Y-20273101D02*
X10960284Y-20263577D01*
X10950760Y-20254054D01*
X10941236Y-20235006D01*
X10941236Y-20177863D01*
X10950760Y-20158815D01*
X10960284Y-20149292D01*
X10979332Y-20139768D01*
X11007903Y-20139768D01*
X11026951Y-20149292D01*
X11036474Y-20158815D01*
X11045998Y-20177863D01*
X11045998Y-20235006D01*
X11036474Y-20254054D01*
X11026951Y-20263577D01*
X11007903Y-20273101D01*
X10979332Y-20273101D01*
X11160284Y-20273101D02*
X11141236Y-20263577D01*
X11131713Y-20244530D01*
X11131713Y-20073101D01*
X11312665Y-20263577D02*
X11293617Y-20273101D01*
X11255522Y-20273101D01*
X11236474Y-20263577D01*
X11226951Y-20244530D01*
X11226951Y-20168339D01*
X11236474Y-20149292D01*
X11255522Y-20139768D01*
X11293617Y-20139768D01*
X11312665Y-20149292D01*
X11322189Y-20168339D01*
X11322189Y-20187387D01*
X11226951Y-20206435D01*
X11398379Y-20263577D02*
X11417427Y-20273101D01*
X11455522Y-20273101D01*
X11474570Y-20263577D01*
X11484093Y-20244530D01*
X11484093Y-20235006D01*
X11474570Y-20215958D01*
X11455522Y-20206435D01*
X11426951Y-20206435D01*
X11407903Y-20196911D01*
X11398379Y-20177863D01*
X11398379Y-20168339D01*
X11407903Y-20149292D01*
X11426951Y-20139768D01*
X11455522Y-20139768D01*
X11474570Y-20149292D01*
X11550760Y-20349292D02*
X11560284Y-20339768D01*
X11579331Y-20311196D01*
X11588855Y-20292149D01*
X11598379Y-20263577D01*
X11607903Y-20215958D01*
X11607903Y-20177863D01*
X11598379Y-20130244D01*
X11588855Y-20101673D01*
X11579331Y-20082625D01*
X11560284Y-20054054D01*
X11550760Y-20044530D01*
D13*
X6588379Y-20446625D02*
G75*
G03*
X6588379Y-20446625I-50000J0D01*
G01*
D11*
X6950760Y-20537101D02*
X6836474Y-20537101D01*
X6893617Y-20537101D02*
X6893617Y-20337101D01*
X6874570Y-20365673D01*
X6855522Y-20384720D01*
X6836474Y-20394244D01*
X7036474Y-20518054D02*
X7045998Y-20527577D01*
X7036474Y-20537101D01*
X7026951Y-20527577D01*
X7036474Y-20518054D01*
X7036474Y-20537101D01*
X7169808Y-20337101D02*
X7188855Y-20337101D01*
X7207903Y-20346625D01*
X7217427Y-20356149D01*
X7226951Y-20375196D01*
X7236474Y-20413292D01*
X7236474Y-20460911D01*
X7226951Y-20499006D01*
X7217427Y-20518054D01*
X7207903Y-20527577D01*
X7188855Y-20537101D01*
X7169808Y-20537101D01*
X7150760Y-20527577D01*
X7141236Y-20518054D01*
X7131712Y-20499006D01*
X7122189Y-20460911D01*
X7122189Y-20413292D01*
X7131712Y-20375196D01*
X7141236Y-20356149D01*
X7150760Y-20346625D01*
X7169808Y-20337101D01*
X7360284Y-20337101D02*
X7379331Y-20337101D01*
X7398379Y-20346625D01*
X7407903Y-20356149D01*
X7417427Y-20375196D01*
X7426951Y-20413292D01*
X7426951Y-20460911D01*
X7417427Y-20499006D01*
X7407903Y-20518054D01*
X7398379Y-20527577D01*
X7379331Y-20537101D01*
X7360284Y-20537101D01*
X7341236Y-20527577D01*
X7331712Y-20518054D01*
X7322189Y-20499006D01*
X7312665Y-20460911D01*
X7312665Y-20413292D01*
X7322189Y-20375196D01*
X7331712Y-20356149D01*
X7341236Y-20346625D01*
X7360284Y-20337101D01*
X7550760Y-20337101D02*
X7569808Y-20337101D01*
X7588855Y-20346625D01*
X7598379Y-20356149D01*
X7607903Y-20375196D01*
X7617427Y-20413292D01*
X7617427Y-20460911D01*
X7607903Y-20499006D01*
X7598379Y-20518054D01*
X7588855Y-20527577D01*
X7569808Y-20537101D01*
X7550760Y-20537101D01*
X7531712Y-20527577D01*
X7522189Y-20518054D01*
X7512665Y-20499006D01*
X7503141Y-20460911D01*
X7503141Y-20413292D01*
X7512665Y-20375196D01*
X7522189Y-20356149D01*
X7531712Y-20346625D01*
X7550760Y-20337101D01*
X7703141Y-20537101D02*
X7703141Y-20403768D01*
X7703141Y-20422815D02*
X7712665Y-20413292D01*
X7731712Y-20403768D01*
X7760284Y-20403768D01*
X7779331Y-20413292D01*
X7788855Y-20432339D01*
X7788855Y-20537101D01*
X7788855Y-20432339D02*
X7798379Y-20413292D01*
X7817427Y-20403768D01*
X7845998Y-20403768D01*
X7865046Y-20413292D01*
X7874570Y-20432339D01*
X7874570Y-20537101D01*
X7969808Y-20537101D02*
X7969808Y-20403768D01*
X7969808Y-20422815D02*
X7979331Y-20413292D01*
X7998379Y-20403768D01*
X8026951Y-20403768D01*
X8045998Y-20413292D01*
X8055522Y-20432339D01*
X8055522Y-20537101D01*
X8055522Y-20432339D02*
X8065046Y-20413292D01*
X8084093Y-20403768D01*
X8112665Y-20403768D01*
X8131712Y-20413292D01*
X8141236Y-20432339D01*
X8141236Y-20537101D01*
X8531713Y-20327577D02*
X8360284Y-20584720D01*
X8788855Y-20337101D02*
X8807903Y-20337101D01*
X8826951Y-20346625D01*
X8836474Y-20356149D01*
X8845998Y-20375196D01*
X8855522Y-20413292D01*
X8855522Y-20460911D01*
X8845998Y-20499006D01*
X8836474Y-20518054D01*
X8826951Y-20527577D01*
X8807903Y-20537101D01*
X8788855Y-20537101D01*
X8769808Y-20527577D01*
X8760284Y-20518054D01*
X8750760Y-20499006D01*
X8741236Y-20460911D01*
X8741236Y-20413292D01*
X8750760Y-20375196D01*
X8760284Y-20356149D01*
X8769808Y-20346625D01*
X8788855Y-20337101D01*
X8941236Y-20518054D02*
X8950760Y-20527577D01*
X8941236Y-20537101D01*
X8931713Y-20527577D01*
X8941236Y-20518054D01*
X8941236Y-20537101D01*
X9074570Y-20337101D02*
X9093617Y-20337101D01*
X9112665Y-20346625D01*
X9122189Y-20356149D01*
X9131713Y-20375196D01*
X9141236Y-20413292D01*
X9141236Y-20460911D01*
X9131713Y-20499006D01*
X9122189Y-20518054D01*
X9112665Y-20527577D01*
X9093617Y-20537101D01*
X9074570Y-20537101D01*
X9055522Y-20527577D01*
X9045998Y-20518054D01*
X9036474Y-20499006D01*
X9026951Y-20460911D01*
X9026951Y-20413292D01*
X9036474Y-20375196D01*
X9045998Y-20356149D01*
X9055522Y-20346625D01*
X9074570Y-20337101D01*
X9207903Y-20337101D02*
X9331713Y-20337101D01*
X9265046Y-20413292D01*
X9293617Y-20413292D01*
X9312665Y-20422815D01*
X9322189Y-20432339D01*
X9331713Y-20451387D01*
X9331713Y-20499006D01*
X9322189Y-20518054D01*
X9312665Y-20527577D01*
X9293617Y-20537101D01*
X9236474Y-20537101D01*
X9217427Y-20527577D01*
X9207903Y-20518054D01*
X9426951Y-20537101D02*
X9465046Y-20537101D01*
X9484093Y-20527577D01*
X9493617Y-20518054D01*
X9512665Y-20489482D01*
X9522189Y-20451387D01*
X9522189Y-20375196D01*
X9512665Y-20356149D01*
X9503141Y-20346625D01*
X9484093Y-20337101D01*
X9445998Y-20337101D01*
X9426951Y-20346625D01*
X9417427Y-20356149D01*
X9407903Y-20375196D01*
X9407903Y-20422815D01*
X9417427Y-20441863D01*
X9426951Y-20451387D01*
X9445998Y-20460911D01*
X9484093Y-20460911D01*
X9503141Y-20451387D01*
X9512665Y-20441863D01*
X9522189Y-20422815D01*
X9693617Y-20403768D02*
X9693617Y-20537101D01*
X9645998Y-20327577D02*
X9598379Y-20470435D01*
X9722189Y-20470435D01*
X9788855Y-20337101D02*
X9788855Y-20375196D01*
X9865046Y-20337101D02*
X9865046Y-20375196D01*
X10160284Y-20613292D02*
X10150760Y-20603768D01*
X10131713Y-20575196D01*
X10122189Y-20556149D01*
X10112665Y-20527577D01*
X10103141Y-20479958D01*
X10103141Y-20441863D01*
X10112665Y-20394244D01*
X10122189Y-20365673D01*
X10131713Y-20346625D01*
X10150760Y-20318054D01*
X10160284Y-20308530D01*
X10217427Y-20337101D02*
X10341236Y-20337101D01*
X10274570Y-20413292D01*
X10303141Y-20413292D01*
X10322189Y-20422815D01*
X10331713Y-20432339D01*
X10341236Y-20451387D01*
X10341236Y-20499006D01*
X10331713Y-20518054D01*
X10322189Y-20527577D01*
X10303141Y-20537101D01*
X10245998Y-20537101D01*
X10226951Y-20527577D01*
X10217427Y-20518054D01*
X10579332Y-20537101D02*
X10579332Y-20337101D01*
X10665046Y-20537101D02*
X10665046Y-20432339D01*
X10655522Y-20413292D01*
X10636474Y-20403768D01*
X10607903Y-20403768D01*
X10588855Y-20413292D01*
X10579332Y-20422815D01*
X10788855Y-20537101D02*
X10769808Y-20527577D01*
X10760284Y-20518054D01*
X10750760Y-20499006D01*
X10750760Y-20441863D01*
X10760284Y-20422815D01*
X10769808Y-20413292D01*
X10788855Y-20403768D01*
X10817427Y-20403768D01*
X10836474Y-20413292D01*
X10845998Y-20422815D01*
X10855522Y-20441863D01*
X10855522Y-20499006D01*
X10845998Y-20518054D01*
X10836474Y-20527577D01*
X10817427Y-20537101D01*
X10788855Y-20537101D01*
X10969808Y-20537101D02*
X10950760Y-20527577D01*
X10941236Y-20508530D01*
X10941236Y-20337101D01*
X11122189Y-20527577D02*
X11103141Y-20537101D01*
X11065046Y-20537101D01*
X11045998Y-20527577D01*
X11036474Y-20508530D01*
X11036474Y-20432339D01*
X11045998Y-20413292D01*
X11065046Y-20403768D01*
X11103141Y-20403768D01*
X11122189Y-20413292D01*
X11131713Y-20432339D01*
X11131713Y-20451387D01*
X11036474Y-20470435D01*
X11207903Y-20527577D02*
X11226951Y-20537101D01*
X11265046Y-20537101D01*
X11284093Y-20527577D01*
X11293617Y-20508530D01*
X11293617Y-20499006D01*
X11284093Y-20479958D01*
X11265046Y-20470435D01*
X11236474Y-20470435D01*
X11217427Y-20460911D01*
X11207903Y-20441863D01*
X11207903Y-20432339D01*
X11217427Y-20413292D01*
X11236474Y-20403768D01*
X11265046Y-20403768D01*
X11284093Y-20413292D01*
X11360284Y-20613292D02*
X11369808Y-20603768D01*
X11388855Y-20575196D01*
X11398379Y-20556149D01*
X11407903Y-20527577D01*
X11417427Y-20479958D01*
X11417427Y-20441863D01*
X11407903Y-20394244D01*
X11398379Y-20365673D01*
X11388855Y-20346625D01*
X11369808Y-20318054D01*
X11360284Y-20308530D01*
D14*
X6514879Y-20637125D02*
X6514879Y-20784125D01*
X6441379Y-20710625D02*
X6588379Y-20710625D01*
D11*
X6950760Y-20801101D02*
X6836474Y-20801101D01*
X6893617Y-20801101D02*
X6893617Y-20601101D01*
X6874570Y-20629673D01*
X6855522Y-20648720D01*
X6836474Y-20658244D01*
X7036474Y-20782054D02*
X7045998Y-20791577D01*
X7036474Y-20801101D01*
X7026951Y-20791577D01*
X7036474Y-20782054D01*
X7036474Y-20801101D01*
X7217427Y-20667768D02*
X7217427Y-20801101D01*
X7169808Y-20591577D02*
X7122189Y-20734435D01*
X7245998Y-20734435D01*
X7303141Y-20601101D02*
X7436474Y-20601101D01*
X7350760Y-20801101D01*
X7550760Y-20601101D02*
X7569808Y-20601101D01*
X7588855Y-20610625D01*
X7598379Y-20620149D01*
X7607903Y-20639196D01*
X7617427Y-20677292D01*
X7617427Y-20724911D01*
X7607903Y-20763006D01*
X7598379Y-20782054D01*
X7588855Y-20791577D01*
X7569808Y-20801101D01*
X7550760Y-20801101D01*
X7531712Y-20791577D01*
X7522189Y-20782054D01*
X7512665Y-20763006D01*
X7503141Y-20724911D01*
X7503141Y-20677292D01*
X7512665Y-20639196D01*
X7522189Y-20620149D01*
X7531712Y-20610625D01*
X7550760Y-20601101D01*
X7703141Y-20801101D02*
X7703141Y-20667768D01*
X7703141Y-20686815D02*
X7712665Y-20677292D01*
X7731712Y-20667768D01*
X7760284Y-20667768D01*
X7779331Y-20677292D01*
X7788855Y-20696339D01*
X7788855Y-20801101D01*
X7788855Y-20696339D02*
X7798379Y-20677292D01*
X7817427Y-20667768D01*
X7845998Y-20667768D01*
X7865046Y-20677292D01*
X7874570Y-20696339D01*
X7874570Y-20801101D01*
X7969808Y-20801101D02*
X7969808Y-20667768D01*
X7969808Y-20686815D02*
X7979331Y-20677292D01*
X7998379Y-20667768D01*
X8026951Y-20667768D01*
X8045998Y-20677292D01*
X8055522Y-20696339D01*
X8055522Y-20801101D01*
X8055522Y-20696339D02*
X8065046Y-20677292D01*
X8084093Y-20667768D01*
X8112665Y-20667768D01*
X8131712Y-20677292D01*
X8141236Y-20696339D01*
X8141236Y-20801101D01*
X8531713Y-20591577D02*
X8360284Y-20848720D01*
X8788855Y-20601101D02*
X8807903Y-20601101D01*
X8826951Y-20610625D01*
X8836474Y-20620149D01*
X8845998Y-20639196D01*
X8855522Y-20677292D01*
X8855522Y-20724911D01*
X8845998Y-20763006D01*
X8836474Y-20782054D01*
X8826951Y-20791577D01*
X8807903Y-20801101D01*
X8788855Y-20801101D01*
X8769808Y-20791577D01*
X8760284Y-20782054D01*
X8750760Y-20763006D01*
X8741236Y-20724911D01*
X8741236Y-20677292D01*
X8750760Y-20639196D01*
X8760284Y-20620149D01*
X8769808Y-20610625D01*
X8788855Y-20601101D01*
X8941236Y-20782054D02*
X8950760Y-20791577D01*
X8941236Y-20801101D01*
X8931713Y-20791577D01*
X8941236Y-20782054D01*
X8941236Y-20801101D01*
X9074570Y-20601101D02*
X9093617Y-20601101D01*
X9112665Y-20610625D01*
X9122189Y-20620149D01*
X9131713Y-20639196D01*
X9141236Y-20677292D01*
X9141236Y-20724911D01*
X9131713Y-20763006D01*
X9122189Y-20782054D01*
X9112665Y-20791577D01*
X9093617Y-20801101D01*
X9074570Y-20801101D01*
X9055522Y-20791577D01*
X9045998Y-20782054D01*
X9036474Y-20763006D01*
X9026951Y-20724911D01*
X9026951Y-20677292D01*
X9036474Y-20639196D01*
X9045998Y-20620149D01*
X9055522Y-20610625D01*
X9074570Y-20601101D01*
X9322189Y-20601101D02*
X9226951Y-20601101D01*
X9217427Y-20696339D01*
X9226951Y-20686815D01*
X9245998Y-20677292D01*
X9293617Y-20677292D01*
X9312665Y-20686815D01*
X9322189Y-20696339D01*
X9331713Y-20715387D01*
X9331713Y-20763006D01*
X9322189Y-20782054D01*
X9312665Y-20791577D01*
X9293617Y-20801101D01*
X9245998Y-20801101D01*
X9226951Y-20791577D01*
X9217427Y-20782054D01*
X9398379Y-20601101D02*
X9531713Y-20601101D01*
X9445998Y-20801101D01*
X9617427Y-20801101D02*
X9655522Y-20801101D01*
X9674570Y-20791577D01*
X9684093Y-20782054D01*
X9703141Y-20753482D01*
X9712665Y-20715387D01*
X9712665Y-20639196D01*
X9703141Y-20620149D01*
X9693617Y-20610625D01*
X9674570Y-20601101D01*
X9636474Y-20601101D01*
X9617427Y-20610625D01*
X9607903Y-20620149D01*
X9598379Y-20639196D01*
X9598379Y-20686815D01*
X9607903Y-20705863D01*
X9617427Y-20715387D01*
X9636474Y-20724911D01*
X9674570Y-20724911D01*
X9693617Y-20715387D01*
X9703141Y-20705863D01*
X9712665Y-20686815D01*
X9788855Y-20601101D02*
X9788855Y-20639196D01*
X9865046Y-20601101D02*
X9865046Y-20639196D01*
X10160284Y-20877292D02*
X10150760Y-20867768D01*
X10131713Y-20839196D01*
X10122189Y-20820149D01*
X10112665Y-20791577D01*
X10103141Y-20743958D01*
X10103141Y-20705863D01*
X10112665Y-20658244D01*
X10122189Y-20629673D01*
X10131713Y-20610625D01*
X10150760Y-20582054D01*
X10160284Y-20572530D01*
X10341236Y-20801101D02*
X10226951Y-20801101D01*
X10284093Y-20801101D02*
X10284093Y-20601101D01*
X10265046Y-20629673D01*
X10245998Y-20648720D01*
X10226951Y-20658244D01*
X10417427Y-20620149D02*
X10426951Y-20610625D01*
X10445998Y-20601101D01*
X10493617Y-20601101D01*
X10512665Y-20610625D01*
X10522189Y-20620149D01*
X10531713Y-20639196D01*
X10531713Y-20658244D01*
X10522189Y-20686815D01*
X10407903Y-20801101D01*
X10531713Y-20801101D01*
X10655522Y-20601101D02*
X10674570Y-20601101D01*
X10693617Y-20610625D01*
X10703141Y-20620149D01*
X10712665Y-20639196D01*
X10722189Y-20677292D01*
X10722189Y-20724911D01*
X10712665Y-20763006D01*
X10703141Y-20782054D01*
X10693617Y-20791577D01*
X10674570Y-20801101D01*
X10655522Y-20801101D01*
X10636474Y-20791577D01*
X10626951Y-20782054D01*
X10617427Y-20763006D01*
X10607903Y-20724911D01*
X10607903Y-20677292D01*
X10617427Y-20639196D01*
X10626951Y-20620149D01*
X10636474Y-20610625D01*
X10655522Y-20601101D01*
X10960284Y-20801101D02*
X10960284Y-20601101D01*
X11045998Y-20801101D02*
X11045998Y-20696339D01*
X11036474Y-20677292D01*
X11017427Y-20667768D01*
X10988855Y-20667768D01*
X10969808Y-20677292D01*
X10960284Y-20686815D01*
X11169808Y-20801101D02*
X11150760Y-20791577D01*
X11141236Y-20782054D01*
X11131713Y-20763006D01*
X11131713Y-20705863D01*
X11141236Y-20686815D01*
X11150760Y-20677292D01*
X11169808Y-20667768D01*
X11198379Y-20667768D01*
X11217427Y-20677292D01*
X11226951Y-20686815D01*
X11236474Y-20705863D01*
X11236474Y-20763006D01*
X11226951Y-20782054D01*
X11217427Y-20791577D01*
X11198379Y-20801101D01*
X11169808Y-20801101D01*
X11350760Y-20801101D02*
X11331712Y-20791577D01*
X11322189Y-20772530D01*
X11322189Y-20601101D01*
X11503141Y-20791577D02*
X11484093Y-20801101D01*
X11445998Y-20801101D01*
X11426951Y-20791577D01*
X11417427Y-20772530D01*
X11417427Y-20696339D01*
X11426951Y-20677292D01*
X11445998Y-20667768D01*
X11484093Y-20667768D01*
X11503141Y-20677292D01*
X11512665Y-20696339D01*
X11512665Y-20715387D01*
X11417427Y-20734435D01*
X11588855Y-20791577D02*
X11607903Y-20801101D01*
X11645998Y-20801101D01*
X11665046Y-20791577D01*
X11674570Y-20772530D01*
X11674570Y-20763006D01*
X11665046Y-20743958D01*
X11645998Y-20734435D01*
X11617427Y-20734435D01*
X11598379Y-20724911D01*
X11588855Y-20705863D01*
X11588855Y-20696339D01*
X11598379Y-20677292D01*
X11617427Y-20667768D01*
X11645998Y-20667768D01*
X11665046Y-20677292D01*
X11741236Y-20877292D02*
X11750760Y-20867768D01*
X11769808Y-20839196D01*
X11779331Y-20820149D01*
X11788855Y-20791577D01*
X11798379Y-20743958D01*
X11798379Y-20705863D01*
X11788855Y-20658244D01*
X11779331Y-20629673D01*
X11769808Y-20610625D01*
X11750760Y-20582054D01*
X11741236Y-20572530D01*
M02*
