G04 #@! TF.GenerationSoftware,KiCad,Pcbnew,(6.0.1)*
G04 #@! TF.CreationDate,2022-02-20T01:23:08-08:00*
G04 #@! TF.ProjectId,wkl60,776b6c36-302e-46b6-9963-61645f706362,rev?*
G04 #@! TF.SameCoordinates,Original*
G04 #@! TF.FileFunction,Soldermask,Bot*
G04 #@! TF.FilePolarity,Negative*
%FSLAX46Y46*%
G04 Gerber Fmt 4.6, Leading zero omitted, Abs format (unit mm)*
G04 Created by KiCad (PCBNEW (6.0.1)) date 2022-02-20 01:23:08*
%MOMM*%
%LPD*%
G01*
G04 APERTURE LIST*
G04 Aperture macros list*
%AMRoundRect*
0 Rectangle with rounded corners*
0 $1 Rounding radius*
0 $2 $3 $4 $5 $6 $7 $8 $9 X,Y pos of 4 corners*
0 Add a 4 corners polygon primitive as box body*
4,1,4,$2,$3,$4,$5,$6,$7,$8,$9,$2,$3,0*
0 Add four circle primitives for the rounded corners*
1,1,$1+$1,$2,$3*
1,1,$1+$1,$4,$5*
1,1,$1+$1,$6,$7*
1,1,$1+$1,$8,$9*
0 Add four rect primitives between the rounded corners*
20,1,$1+$1,$2,$3,$4,$5,0*
20,1,$1+$1,$4,$5,$6,$7,0*
20,1,$1+$1,$6,$7,$8,$9,0*
20,1,$1+$1,$8,$9,$2,$3,0*%
G04 Aperture macros list end*
%ADD10C,3.987800*%
%ADD11C,1.750000*%
%ADD12C,2.250000*%
%ADD13C,3.048000*%
%ADD14RoundRect,0.237500X-0.300000X-0.237500X0.300000X-0.237500X0.300000X0.237500X-0.300000X0.237500X0*%
%ADD15R,1.100000X1.100000*%
%ADD16R,2.000000X2.400000*%
%ADD17RoundRect,0.237500X0.300000X0.237500X-0.300000X0.237500X-0.300000X-0.237500X0.300000X-0.237500X0*%
%ADD18RoundRect,0.237500X0.237500X-0.300000X0.237500X0.300000X-0.237500X0.300000X-0.237500X-0.300000X0*%
%ADD19RoundRect,0.150000X-0.625000X0.150000X-0.625000X-0.150000X0.625000X-0.150000X0.625000X0.150000X0*%
%ADD20RoundRect,0.250000X-0.650000X0.350000X-0.650000X-0.350000X0.650000X-0.350000X0.650000X0.350000X0*%
%ADD21RoundRect,0.075000X0.075000X-0.662500X0.075000X0.662500X-0.075000X0.662500X-0.075000X-0.662500X0*%
%ADD22RoundRect,0.075000X0.662500X-0.075000X0.662500X0.075000X-0.662500X0.075000X-0.662500X-0.075000X0*%
%ADD23RoundRect,0.150000X0.150000X-0.587500X0.150000X0.587500X-0.150000X0.587500X-0.150000X-0.587500X0*%
%ADD24RoundRect,0.237500X-0.237500X0.300000X-0.237500X-0.300000X0.237500X-0.300000X0.237500X0.300000X0*%
%ADD25R,1.700000X1.700000*%
%ADD26O,1.700000X1.700000*%
%ADD27RoundRect,0.237500X0.237500X-0.250000X0.237500X0.250000X-0.237500X0.250000X-0.237500X-0.250000X0*%
%ADD28RoundRect,0.237500X0.250000X0.237500X-0.250000X0.237500X-0.250000X-0.237500X0.250000X-0.237500X0*%
G04 APERTURE END LIST*
D10*
X265165042Y-110445000D03*
D11*
X270245042Y-110445000D03*
X260085042Y-110445000D03*
D12*
X261355042Y-107905000D03*
X267705042Y-105365000D03*
D11*
X79745042Y-110445000D03*
D10*
X74665042Y-110445000D03*
D11*
X69585042Y-110445000D03*
D12*
X70855042Y-107905000D03*
X77205042Y-105365000D03*
D11*
X84507542Y-186645000D03*
D10*
X79427542Y-186645000D03*
D11*
X74347542Y-186645000D03*
D12*
X75617542Y-184105000D03*
X81967542Y-181565000D03*
D11*
X122607542Y-167595000D03*
D10*
X117527542Y-167595000D03*
D11*
X112447542Y-167595000D03*
D12*
X113717542Y-165055000D03*
X120067542Y-162515000D03*
D10*
X127052542Y-186645000D03*
D11*
X132132542Y-186645000D03*
X121972542Y-186645000D03*
D12*
X123242542Y-184105000D03*
X129592542Y-181565000D03*
D10*
X188965042Y-110445000D03*
D11*
X183885042Y-110445000D03*
X194045042Y-110445000D03*
D12*
X185155042Y-107905000D03*
X191505042Y-105365000D03*
D10*
X303265042Y-110445000D03*
D11*
X308345042Y-110445000D03*
X298185042Y-110445000D03*
D12*
X299455042Y-107905000D03*
X305805042Y-105365000D03*
D11*
X227382542Y-148545000D03*
D10*
X222302542Y-148545000D03*
D11*
X217222542Y-148545000D03*
D12*
X218492542Y-146005000D03*
X224842542Y-143465000D03*
D10*
X165152542Y-148545000D03*
D11*
X160072542Y-148545000D03*
X170232542Y-148545000D03*
D12*
X161342542Y-146005000D03*
X167692542Y-143465000D03*
D13*
X150865042Y-193630000D03*
D10*
X208015042Y-186645000D03*
X265165042Y-178390000D03*
D11*
X213095042Y-186645000D03*
D13*
X265165042Y-193630000D03*
D11*
X202935042Y-186645000D03*
D10*
X150865042Y-178390000D03*
D12*
X204205042Y-184105000D03*
X210555042Y-181565000D03*
D10*
X131815042Y-110445000D03*
D11*
X126735042Y-110445000D03*
X136895042Y-110445000D03*
D12*
X128005042Y-107905000D03*
X134355042Y-105365000D03*
D10*
X174677542Y-167595000D03*
D11*
X179757542Y-167595000D03*
X169597542Y-167595000D03*
D12*
X170867542Y-165055000D03*
X177217542Y-162515000D03*
D10*
X108002542Y-148545000D03*
D11*
X113082542Y-148545000D03*
X102922542Y-148545000D03*
D12*
X104192542Y-146005000D03*
X110542542Y-143465000D03*
D10*
X112765042Y-110445000D03*
D11*
X117845042Y-110445000D03*
X107685042Y-110445000D03*
D12*
X108955042Y-107905000D03*
X115305042Y-105365000D03*
D11*
X198172542Y-148545000D03*
D10*
X203252542Y-148545000D03*
D11*
X208332542Y-148545000D03*
D12*
X199442542Y-146005000D03*
X205792542Y-143465000D03*
D11*
X145785042Y-110445000D03*
D10*
X150865042Y-110445000D03*
D11*
X155945042Y-110445000D03*
D12*
X147055042Y-107905000D03*
X153405042Y-105365000D03*
D11*
X255957542Y-167595000D03*
X245797542Y-167595000D03*
D10*
X250877542Y-167595000D03*
D12*
X247067542Y-165055000D03*
X253417542Y-162515000D03*
D11*
X288660042Y-129495000D03*
D10*
X293740042Y-129495000D03*
D11*
X298820042Y-129495000D03*
D12*
X289930042Y-126955000D03*
X296280042Y-124415000D03*
D11*
X336285042Y-110445000D03*
X346445042Y-110445000D03*
D10*
X341365042Y-110445000D03*
D12*
X337555042Y-107905000D03*
X343905042Y-105365000D03*
D11*
X146420042Y-129495000D03*
X136260042Y-129495000D03*
D10*
X141340042Y-129495000D03*
D12*
X137530042Y-126955000D03*
X143880042Y-124415000D03*
D10*
X198490042Y-129495000D03*
D11*
X203570042Y-129495000D03*
X193410042Y-129495000D03*
D12*
X194680042Y-126955000D03*
X201030042Y-124415000D03*
D11*
X289295042Y-110445000D03*
D10*
X284215042Y-110445000D03*
D11*
X279135042Y-110445000D03*
D12*
X280405042Y-107905000D03*
X286755042Y-105365000D03*
D11*
X336285042Y-167595000D03*
D10*
X341365042Y-167595000D03*
D11*
X346445042Y-167595000D03*
D12*
X337555042Y-165055000D03*
X343905042Y-162515000D03*
D11*
X283897542Y-167595000D03*
X294057542Y-167595000D03*
D10*
X288977542Y-167595000D03*
D12*
X285167542Y-165055000D03*
X291517542Y-162515000D03*
D10*
X298502542Y-148545000D03*
D11*
X303582542Y-148545000D03*
X293422542Y-148545000D03*
D12*
X294692542Y-146005000D03*
X301042542Y-143465000D03*
D11*
X226747542Y-167595000D03*
D10*
X231827542Y-167595000D03*
D11*
X236907542Y-167595000D03*
D12*
X228017542Y-165055000D03*
X234367542Y-162515000D03*
D11*
X294057542Y-186645000D03*
X283897542Y-186645000D03*
D10*
X288977542Y-186645000D03*
D12*
X285167542Y-184105000D03*
X291517542Y-181565000D03*
D11*
X310091292Y-167595000D03*
D10*
X315171292Y-167595000D03*
D11*
X320251292Y-167595000D03*
D12*
X311361292Y-165055000D03*
X317711292Y-162515000D03*
D10*
X212777542Y-167595000D03*
D11*
X217857542Y-167595000D03*
X207697542Y-167595000D03*
D12*
X208967542Y-165055000D03*
X215317542Y-162515000D03*
D10*
X127052542Y-148545000D03*
D11*
X132132542Y-148545000D03*
X121972542Y-148545000D03*
D12*
X123242542Y-146005000D03*
X129592542Y-143465000D03*
D11*
X341682542Y-186645000D03*
D10*
X336602542Y-186645000D03*
D11*
X331522542Y-186645000D03*
D12*
X332792542Y-184105000D03*
X339142542Y-181565000D03*
D11*
X117210042Y-129495000D03*
D10*
X122290042Y-129495000D03*
D11*
X127370042Y-129495000D03*
D12*
X118480042Y-126955000D03*
X124830042Y-124415000D03*
D10*
X217540042Y-129495000D03*
D11*
X212460042Y-129495000D03*
X222620042Y-129495000D03*
D12*
X213730042Y-126955000D03*
X220080042Y-124415000D03*
D11*
X189282542Y-148545000D03*
X179122542Y-148545000D03*
D10*
X184202542Y-148545000D03*
D12*
X180392542Y-146005000D03*
X186742542Y-143465000D03*
D10*
X322315042Y-110445000D03*
D11*
X317235042Y-110445000D03*
X327395042Y-110445000D03*
D12*
X318505042Y-107905000D03*
X324855042Y-105365000D03*
D11*
X150547542Y-167595000D03*
X160707542Y-167595000D03*
D10*
X155627542Y-167595000D03*
D12*
X151817542Y-165055000D03*
X158167542Y-162515000D03*
D11*
X275007542Y-167595000D03*
X264847542Y-167595000D03*
D10*
X269927542Y-167595000D03*
D12*
X266117542Y-165055000D03*
X272467542Y-162515000D03*
D10*
X208015042Y-110445000D03*
D11*
X202935042Y-110445000D03*
X213095042Y-110445000D03*
D12*
X204205042Y-107905000D03*
X210555042Y-105365000D03*
D10*
X146102542Y-148545000D03*
D11*
X151182542Y-148545000D03*
X141022542Y-148545000D03*
D12*
X142292542Y-146005000D03*
X148642542Y-143465000D03*
D11*
X232145042Y-110445000D03*
X221985042Y-110445000D03*
D10*
X227065042Y-110445000D03*
D12*
X223255042Y-107905000D03*
X229605042Y-105365000D03*
D11*
X98160042Y-129495000D03*
X108320042Y-129495000D03*
D10*
X103240042Y-129495000D03*
D12*
X99430042Y-126955000D03*
X105780042Y-124415000D03*
D11*
X317870042Y-129495000D03*
X307710042Y-129495000D03*
D10*
X312790042Y-129495000D03*
D12*
X308980042Y-126955000D03*
X315330042Y-124415000D03*
D11*
X236272542Y-148545000D03*
D10*
X241352542Y-148545000D03*
D11*
X246432542Y-148545000D03*
D12*
X237542542Y-146005000D03*
X243892542Y-143465000D03*
D11*
X76728792Y-148545000D03*
D10*
X81808792Y-148545000D03*
D11*
X86888792Y-148545000D03*
D12*
X77998792Y-146005000D03*
X84348792Y-143465000D03*
D10*
X86571292Y-167595000D03*
X98477542Y-159340000D03*
D11*
X81491292Y-167595000D03*
X91651292Y-167595000D03*
D13*
X98477542Y-174580000D03*
D10*
X74665042Y-159340000D03*
D13*
X74665042Y-174580000D03*
D12*
X82761292Y-165055000D03*
X89111292Y-162515000D03*
D11*
X74347542Y-129495000D03*
X84507542Y-129495000D03*
D10*
X79427542Y-129495000D03*
D12*
X75617542Y-126955000D03*
X81967542Y-124415000D03*
D11*
X279770042Y-129495000D03*
D10*
X274690042Y-129495000D03*
D11*
X269610042Y-129495000D03*
D12*
X270880042Y-126955000D03*
X277230042Y-124415000D03*
D11*
X260720042Y-129495000D03*
D10*
X255640042Y-129495000D03*
D11*
X250560042Y-129495000D03*
D12*
X251830042Y-126955000D03*
X258180042Y-124415000D03*
D11*
X274372542Y-148545000D03*
D10*
X279452542Y-148545000D03*
D11*
X284532542Y-148545000D03*
D12*
X275642542Y-146005000D03*
X281992542Y-143465000D03*
D11*
X98795042Y-110445000D03*
X88635042Y-110445000D03*
D10*
X93715042Y-110445000D03*
D12*
X89905042Y-107905000D03*
X96255042Y-105365000D03*
D11*
X184520042Y-129495000D03*
X174360042Y-129495000D03*
D10*
X179440042Y-129495000D03*
D12*
X175630042Y-126955000D03*
X181980042Y-124415000D03*
D11*
X188647542Y-167595000D03*
X198807542Y-167595000D03*
D10*
X193727542Y-167595000D03*
D12*
X189917542Y-165055000D03*
X196267542Y-162515000D03*
D11*
X255322542Y-148545000D03*
D10*
X260402542Y-148545000D03*
D11*
X265482542Y-148545000D03*
D12*
X256592542Y-146005000D03*
X262942542Y-143465000D03*
D11*
X174995042Y-110445000D03*
D10*
X169915042Y-110445000D03*
D11*
X164835042Y-110445000D03*
D12*
X166105042Y-107905000D03*
X172455042Y-105365000D03*
D11*
X331522542Y-129495000D03*
X341682542Y-129495000D03*
D10*
X336602542Y-129495000D03*
D12*
X332792542Y-126955000D03*
X339142542Y-124415000D03*
D10*
X136577542Y-167595000D03*
D11*
X131497542Y-167595000D03*
X141657542Y-167595000D03*
D12*
X132767542Y-165055000D03*
X139117542Y-162515000D03*
D11*
X231510042Y-129495000D03*
X241670042Y-129495000D03*
D10*
X236590042Y-129495000D03*
D12*
X232780042Y-126955000D03*
X239130042Y-124415000D03*
D10*
X160390042Y-129495000D03*
D11*
X165470042Y-129495000D03*
X155310042Y-129495000D03*
D12*
X156580042Y-126955000D03*
X162930042Y-124415000D03*
D11*
X241035042Y-110445000D03*
D10*
X246115042Y-110445000D03*
D11*
X251195042Y-110445000D03*
D12*
X242305042Y-107905000D03*
X248655042Y-105365000D03*
D10*
X317552542Y-156800000D03*
X341365042Y-156800000D03*
X329458792Y-148545000D03*
D13*
X317552542Y-141560000D03*
D11*
X334538792Y-148545000D03*
D13*
X341365042Y-141560000D03*
D11*
X324378792Y-148545000D03*
D12*
X325648792Y-146005000D03*
X331998792Y-143465000D03*
D14*
X88620042Y-144220000D03*
X90345042Y-144220000D03*
D15*
X211983792Y-149945000D03*
X211983792Y-147145000D03*
X278658792Y-168995000D03*
X278658792Y-166195000D03*
X264371292Y-130895000D03*
X264371292Y-128095000D03*
D16*
X91507542Y-149420000D03*
X95207542Y-149420000D03*
D15*
X292946292Y-112032500D03*
X292946292Y-109232500D03*
X254846292Y-112032500D03*
X254846292Y-109232500D03*
X299296292Y-177307500D03*
X299296292Y-180107500D03*
X332633792Y-168995000D03*
X332633792Y-166195000D03*
X154833792Y-149945000D03*
X154833792Y-147145000D03*
X273896292Y-112032500D03*
X273896292Y-109232500D03*
X137371292Y-177307500D03*
X137371292Y-180107500D03*
D14*
X95245042Y-152145000D03*
X96970042Y-152145000D03*
D15*
X192933792Y-149945000D03*
X192933792Y-147145000D03*
X216746292Y-112032500D03*
X216746292Y-109232500D03*
X207221292Y-130895000D03*
X207221292Y-128095000D03*
D17*
X91420042Y-152120000D03*
X89695042Y-152120000D03*
D15*
X202458792Y-168995000D03*
X202458792Y-166195000D03*
X226271292Y-130895000D03*
X226271292Y-128095000D03*
D18*
X98692542Y-145357500D03*
X98692542Y-143632500D03*
D15*
X240558792Y-168995000D03*
X240558792Y-166195000D03*
X325490042Y-130886250D03*
X325490042Y-128086250D03*
D18*
X88138792Y-136438750D03*
X88138792Y-134713750D03*
D15*
X283421292Y-130895000D03*
X283421292Y-128095000D03*
X297708792Y-168995000D03*
X297708792Y-166195000D03*
X259608792Y-168995000D03*
X259608792Y-166195000D03*
X321521292Y-130896250D03*
X321521292Y-128096250D03*
X183408792Y-168995000D03*
X183408792Y-166195000D03*
X90540042Y-177307500D03*
X90540042Y-180107500D03*
X221508792Y-168995000D03*
X221508792Y-166195000D03*
X245321292Y-130895000D03*
X245321292Y-128095000D03*
X116733792Y-149945000D03*
X116733792Y-147145000D03*
X188171292Y-130895000D03*
X188171292Y-128095000D03*
X92921292Y-130895000D03*
X92921292Y-128095000D03*
X311996292Y-112032500D03*
X311996292Y-109232500D03*
X121496292Y-111845000D03*
X121496292Y-109045000D03*
X150071292Y-130895000D03*
X150071292Y-128095000D03*
X97683792Y-149945000D03*
X97683792Y-147145000D03*
X83396292Y-111845000D03*
X83396292Y-109045000D03*
X333003792Y-111838750D03*
X333003792Y-109038750D03*
D19*
X110765042Y-120057500D03*
X110765042Y-121057500D03*
X110765042Y-122057500D03*
X110765042Y-123057500D03*
D20*
X114640042Y-118757500D03*
X114640042Y-124357500D03*
D15*
X145308792Y-168995000D03*
X145308792Y-166195000D03*
X197696292Y-112032500D03*
X197696292Y-109232500D03*
X173883792Y-149945000D03*
X173883792Y-147145000D03*
X302471292Y-130895000D03*
X302471292Y-128095000D03*
D21*
X97258792Y-143182500D03*
X96758792Y-143182500D03*
X96258792Y-143182500D03*
X95758792Y-143182500D03*
X95258792Y-143182500D03*
X94758792Y-143182500D03*
X94258792Y-143182500D03*
X93758792Y-143182500D03*
X93258792Y-143182500D03*
X92758792Y-143182500D03*
X92258792Y-143182500D03*
X91758792Y-143182500D03*
D22*
X90346292Y-141770000D03*
X90346292Y-141270000D03*
X90346292Y-140770000D03*
X90346292Y-140270000D03*
X90346292Y-139770000D03*
X90346292Y-139270000D03*
X90346292Y-138770000D03*
X90346292Y-138270000D03*
X90346292Y-137770000D03*
X90346292Y-137270000D03*
X90346292Y-136770000D03*
X90346292Y-136270000D03*
D21*
X91758792Y-134857500D03*
X92258792Y-134857500D03*
X92758792Y-134857500D03*
X93258792Y-134857500D03*
X93758792Y-134857500D03*
X94258792Y-134857500D03*
X94758792Y-134857500D03*
X95258792Y-134857500D03*
X95758792Y-134857500D03*
X96258792Y-134857500D03*
X96758792Y-134857500D03*
X97258792Y-134857500D03*
D22*
X98671292Y-136270000D03*
X98671292Y-136770000D03*
X98671292Y-137270000D03*
X98671292Y-137770000D03*
X98671292Y-138270000D03*
X98671292Y-138770000D03*
X98671292Y-139270000D03*
X98671292Y-139770000D03*
X98671292Y-140270000D03*
X98671292Y-140770000D03*
X98671292Y-141270000D03*
X98671292Y-141770000D03*
D17*
X88095042Y-133195000D03*
X86370042Y-133195000D03*
D15*
X140546292Y-112032500D03*
X140546292Y-109232500D03*
X135783792Y-149945000D03*
X135783792Y-147145000D03*
X312790042Y-149746250D03*
X312790042Y-146946250D03*
X169121292Y-130895000D03*
X169121292Y-128095000D03*
D23*
X89882542Y-129370000D03*
X87982542Y-129370000D03*
X88932542Y-127495000D03*
D15*
X102446292Y-111845000D03*
X102446292Y-109045000D03*
X346921292Y-177307500D03*
X346921292Y-180107500D03*
D24*
X100838792Y-142651250D03*
X100838792Y-144376250D03*
D15*
X330693792Y-111846250D03*
X330693792Y-109046250D03*
X131021292Y-130895000D03*
X131021292Y-128095000D03*
D25*
X114982542Y-138751250D03*
D26*
X117522542Y-138751250D03*
X120062542Y-138751250D03*
D18*
X88795042Y-147607500D03*
X88795042Y-145882500D03*
D15*
X327077542Y-168995000D03*
X327077542Y-166195000D03*
X231033792Y-149945000D03*
X231033792Y-147145000D03*
D27*
X100107542Y-134020000D03*
X100107542Y-132195000D03*
D15*
X107208792Y-168995000D03*
X107208792Y-166195000D03*
X178646292Y-112032500D03*
X178646292Y-109232500D03*
X126258792Y-168995000D03*
X126258792Y-166195000D03*
D14*
X90395042Y-146020000D03*
X92120042Y-146020000D03*
D15*
X235796292Y-112032500D03*
X235796292Y-109232500D03*
D28*
X102307542Y-140595000D03*
X100482542Y-140595000D03*
D14*
X88070042Y-131607500D03*
X89795042Y-131607500D03*
D15*
X111971292Y-130895000D03*
X111971292Y-128095000D03*
X164358792Y-168995000D03*
X164358792Y-166195000D03*
X307233792Y-149756250D03*
X307233792Y-146956250D03*
X288183792Y-149757500D03*
X288183792Y-146957500D03*
X250083792Y-149945000D03*
X250083792Y-147145000D03*
X159596292Y-112032500D03*
X159596292Y-109232500D03*
D14*
X88932542Y-125257500D03*
X90657542Y-125257500D03*
D15*
X218333792Y-177307500D03*
X218333792Y-180107500D03*
D24*
X98482542Y-132245000D03*
X98482542Y-133970000D03*
D15*
X269133792Y-149757500D03*
X269133792Y-146957500D03*
M02*
