G04 #@! TF.GenerationSoftware,KiCad,Pcbnew,(6.0.1)*
G04 #@! TF.CreationDate,2022-02-20T01:23:08-08:00*
G04 #@! TF.ProjectId,wkl60,776b6c36-302e-46b6-9963-61645f706362,rev?*
G04 #@! TF.SameCoordinates,Original*
G04 #@! TF.FileFunction,Profile,NP*
%FSLAX46Y46*%
G04 Gerber Fmt 4.6, Leading zero omitted, Abs format (unit mm)*
G04 Created by KiCad (PCBNEW (6.0.1)) date 2022-02-20 01:23:08*
%MOMM*%
%LPD*%
G01*
G04 APERTURE LIST*
G04 #@! TA.AperFunction,Profile*
%ADD10C,0.100000*%
G04 #@! TD*
G04 APERTURE END LIST*
D10*
X95302542Y-177120000D02*
G75*
G03*
X92921292Y-179501250I0J-2381250D01*
G01*
X289000000Y-175500000D02*
X117500000Y-175500000D01*
X335100000Y-101713750D02*
X337650000Y-101713750D01*
X252400000Y-101713750D02*
X251700000Y-101713750D01*
X302471292Y-192995000D02*
X302471292Y-179501250D01*
X278700000Y-195376250D02*
G75*
G03*
X272200000Y-195376250I-3250000J0D01*
G01*
X137450000Y-195376250D02*
X134050000Y-195376250D01*
X165900000Y-101713750D02*
X251700000Y-101713750D01*
X90540042Y-195376250D02*
X89746292Y-195376250D01*
X118500000Y-120050000D02*
X302260000Y-120050000D01*
X78950000Y-101713750D02*
X80950000Y-101713750D01*
X113558792Y-179501250D02*
X113558792Y-192995000D01*
X68315042Y-101713750D02*
G75*
G03*
X65933792Y-104095000I0J-2381250D01*
G01*
X323108792Y-192995000D02*
G75*
G03*
X325490042Y-195376250I2381250J0D01*
G01*
X312250000Y-101713750D02*
X318050000Y-101713750D01*
X92921292Y-192995000D02*
X92921292Y-179501250D01*
X337650000Y-101713750D02*
X347715042Y-101713750D01*
X260350000Y-101713750D02*
X312250000Y-101713750D01*
X282000000Y-195376250D02*
X282050000Y-195376250D01*
X283210000Y-195376250D02*
X300090042Y-195376250D01*
X260350000Y-101713750D02*
X258900000Y-101713750D01*
X65933792Y-192995000D02*
X65933792Y-104095000D01*
X65933792Y-192995000D02*
G75*
G03*
X68315042Y-195376250I2381250J0D01*
G01*
X143950000Y-195376250D02*
X272200000Y-195376250D01*
X95302542Y-177120000D02*
X111177542Y-177120000D01*
X347715042Y-195376250D02*
G75*
G03*
X350096292Y-192995000I0J2381250D01*
G01*
X133350000Y-195376250D02*
X115940042Y-195376250D01*
X318050000Y-101713750D02*
X325250000Y-101713750D01*
X278700000Y-195376250D02*
X282000000Y-195376250D01*
X143950000Y-195376250D02*
G75*
G03*
X137450000Y-195376250I-3250000J0D01*
G01*
X302260000Y-120050000D02*
G75*
G03*
X302260000Y-119050000I0J500000D01*
G01*
X323108792Y-179501250D02*
X323108792Y-192995000D01*
X300090042Y-195376250D02*
G75*
G03*
X302471292Y-192995000I0J2381250D01*
G01*
X117500000Y-174500000D02*
G75*
G03*
X117500000Y-175500000I0J-500000D01*
G01*
X325250000Y-101713750D02*
X328600000Y-101713750D01*
X350096292Y-104095000D02*
X350096292Y-192995000D01*
X157150000Y-101713750D02*
G75*
G03*
X163650000Y-101713750I3250000J0D01*
G01*
X289000000Y-175500000D02*
G75*
G03*
X289000000Y-174500000I0J500000D01*
G01*
X134050000Y-195376250D02*
X133350000Y-195376250D01*
X80950000Y-101713750D02*
G75*
G03*
X87450000Y-101713750I3250000J0D01*
G01*
X328600000Y-101713750D02*
G75*
G03*
X335100000Y-101713750I3250000J0D01*
G01*
X90540042Y-195376250D02*
G75*
G03*
X92921292Y-192995000I0J2381250D01*
G01*
X89746292Y-195376250D02*
X68315042Y-195376250D01*
X350096292Y-104095000D02*
G75*
G03*
X347715042Y-101713750I-2381250J0D01*
G01*
X282050000Y-195376250D02*
X283210000Y-195376250D01*
X78950000Y-101713750D02*
X68315042Y-101713750D01*
X304852542Y-177120000D02*
G75*
G03*
X302471292Y-179501250I0J-2381250D01*
G01*
X302260000Y-119050000D02*
X118500000Y-119050000D01*
X325490042Y-195376250D02*
X347715042Y-195376250D01*
X89050000Y-101713750D02*
X156600000Y-101713750D01*
X165900000Y-101713750D02*
X163650000Y-101713750D01*
X113558792Y-179501250D02*
G75*
G03*
X111177542Y-177120000I-2381250J0D01*
G01*
X113558792Y-192995000D02*
G75*
G03*
X115940042Y-195376250I2381250J0D01*
G01*
X87450000Y-101713750D02*
X89050000Y-101713750D01*
X117500000Y-174500000D02*
X289000000Y-174500000D01*
X320727542Y-177120000D02*
X304852542Y-177120000D01*
X157150000Y-101713750D02*
X156600000Y-101713750D01*
X118500000Y-119050000D02*
G75*
G03*
X118500000Y-120050000I0J-500000D01*
G01*
X252400000Y-101713750D02*
G75*
G03*
X258900000Y-101713750I3250000J0D01*
G01*
X323108792Y-179501250D02*
G75*
G03*
X320727542Y-177120000I-2381250J0D01*
G01*
X209699208Y-148345000D02*
G75*
G03*
X209699208Y-148345000I-1666666J0D01*
G01*
X205532542Y-148345000D02*
X210532542Y-148345000D01*
X208032542Y-145845000D02*
X208032542Y-150845000D01*
X209682964Y-148483798D02*
G75*
G03*
X209682964Y-148483798I-1666666J0D01*
G01*
X205516298Y-148483798D02*
X210516298Y-148483798D01*
X208016298Y-145983798D02*
X208016298Y-150983798D01*
M02*
