M48
; DRILL file {KiCad (6.0.1)} date Sun Feb 20 01:23:11 2022
; FORMAT={-:-/ absolute / metric / decimal}
; #@! TF.CreationDate,2022-02-20T01:23:11-08:00
; #@! TF.GenerationSoftware,Kicad,Pcbnew,(6.0.1)
; #@! TF.FileFunction,NonPlated,1,2,NPTH
FMAT,2
METRIC
; #@! TA.AperFunction,NonPlated,NPTH,ComponentDrill
T1C1.750
; #@! TA.AperFunction,NonPlated,NPTH,ComponentDrill
T2C3.048
; #@! TA.AperFunction,NonPlated,NPTH,ComponentDrill
T3C3.988
%
G90
G05
T1
X69.585Y-110.445
X74.348Y-129.495
X74.348Y-186.645
X76.729Y-148.545
X79.745Y-110.445
X81.491Y-167.595
X84.508Y-129.495
X84.508Y-186.645
X86.889Y-148.545
X88.635Y-110.445
X91.651Y-167.595
X98.16Y-129.495
X98.795Y-110.445
X102.923Y-148.545
X107.685Y-110.445
X108.32Y-129.495
X112.448Y-167.595
X113.083Y-148.545
X117.21Y-129.495
X117.845Y-110.445
X121.973Y-148.545
X121.973Y-186.645
X122.608Y-167.595
X126.735Y-110.445
X127.37Y-129.495
X131.498Y-167.595
X132.133Y-148.545
X132.133Y-186.645
X136.26Y-129.495
X136.895Y-110.445
X141.023Y-148.545
X141.658Y-167.595
X145.785Y-110.445
X146.42Y-129.495
X150.548Y-167.595
X151.183Y-148.545
X155.31Y-129.495
X155.945Y-110.445
X160.073Y-148.545
X160.708Y-167.595
X164.835Y-110.445
X165.47Y-129.495
X169.598Y-167.595
X170.233Y-148.545
X174.36Y-129.495
X174.995Y-110.445
X179.123Y-148.545
X179.758Y-167.595
X183.885Y-110.445
X184.52Y-129.495
X188.648Y-167.595
X189.283Y-148.545
X193.41Y-129.495
X194.045Y-110.445
X198.173Y-148.545
X198.808Y-167.595
X202.935Y-110.445
X202.935Y-186.645
X203.57Y-129.495
X207.698Y-167.595
X208.333Y-148.545
X212.46Y-129.495
X213.095Y-110.445
X213.095Y-186.645
X217.223Y-148.545
X217.858Y-167.595
X221.985Y-110.445
X222.62Y-129.495
X226.748Y-167.595
X227.383Y-148.545
X231.51Y-129.495
X232.145Y-110.445
X236.273Y-148.545
X236.908Y-167.595
X241.035Y-110.445
X241.67Y-129.495
X245.798Y-167.595
X246.433Y-148.545
X250.56Y-129.495
X251.195Y-110.445
X255.323Y-148.545
X255.958Y-167.595
X260.085Y-110.445
X260.72Y-129.495
X264.848Y-167.595
X265.483Y-148.545
X269.61Y-129.495
X270.245Y-110.445
X274.373Y-148.545
X275.008Y-167.595
X279.135Y-110.445
X279.77Y-129.495
X283.898Y-167.595
X283.898Y-186.645
X284.533Y-148.545
X288.66Y-129.495
X289.295Y-110.445
X293.423Y-148.545
X294.058Y-167.595
X294.058Y-186.645
X298.185Y-110.445
X298.82Y-129.495
X303.583Y-148.545
X307.71Y-129.495
X308.345Y-110.445
X310.091Y-167.595
X317.235Y-110.445
X317.87Y-129.495
X320.251Y-167.595
X324.379Y-148.545
X327.395Y-110.445
X331.523Y-129.495
X331.523Y-186.645
X334.539Y-148.545
X336.285Y-110.445
X336.285Y-167.595
X341.683Y-129.495
X341.683Y-186.645
X346.445Y-110.445
X346.445Y-167.595
T2
X74.665Y-174.58
X98.478Y-174.58
X150.865Y-193.63
X265.165Y-193.63
X317.553Y-141.56
X341.365Y-141.56
T3
X74.665Y-110.445
X74.665Y-159.34
X79.428Y-129.495
X79.428Y-186.645
X81.809Y-148.545
X86.571Y-167.595
X93.715Y-110.445
X98.478Y-159.34
X103.24Y-129.495
X108.003Y-148.545
X112.765Y-110.445
X117.528Y-167.595
X122.29Y-129.495
X127.053Y-148.545
X127.053Y-186.645
X131.815Y-110.445
X136.578Y-167.595
X141.34Y-129.495
X146.103Y-148.545
X150.865Y-110.445
X150.865Y-178.39
X155.628Y-167.595
X160.39Y-129.495
X165.153Y-148.545
X169.915Y-110.445
X174.678Y-167.595
X179.44Y-129.495
X184.203Y-148.545
X188.965Y-110.445
X193.728Y-167.595
X198.49Y-129.495
X203.253Y-148.545
X208.015Y-110.445
X208.015Y-186.645
X212.778Y-167.595
X217.54Y-129.495
X222.303Y-148.545
X227.065Y-110.445
X231.828Y-167.595
X236.59Y-129.495
X241.353Y-148.545
X246.115Y-110.445
X250.878Y-167.595
X255.64Y-129.495
X260.403Y-148.545
X265.165Y-110.445
X265.165Y-178.39
X269.928Y-167.595
X274.69Y-129.495
X279.453Y-148.545
X284.215Y-110.445
X288.978Y-167.595
X288.978Y-186.645
X293.74Y-129.495
X298.503Y-148.545
X303.265Y-110.445
X312.79Y-129.495
X315.171Y-167.595
X317.553Y-156.8
X322.315Y-110.445
X329.459Y-148.545
X336.603Y-129.495
X336.603Y-186.645
X341.365Y-110.445
X341.365Y-156.8
X341.365Y-167.595
T0
M30
