G04 #@! TF.GenerationSoftware,KiCad,Pcbnew,(6.0.1)*
G04 #@! TF.CreationDate,2022-02-20T01:23:08-08:00*
G04 #@! TF.ProjectId,wkl60,776b6c36-302e-46b6-9963-61645f706362,rev?*
G04 #@! TF.SameCoordinates,Original*
G04 #@! TF.FileFunction,Soldermask,Top*
G04 #@! TF.FilePolarity,Negative*
%FSLAX46Y46*%
G04 Gerber Fmt 4.6, Leading zero omitted, Abs format (unit mm)*
G04 Created by KiCad (PCBNEW (6.0.1)) date 2022-02-20 01:23:08*
%MOMM*%
%LPD*%
G01*
G04 APERTURE LIST*
%ADD10C,3.987800*%
%ADD11C,1.750000*%
%ADD12C,3.048000*%
%ADD13R,1.700000X1.700000*%
%ADD14O,1.700000X1.700000*%
G04 APERTURE END LIST*
D10*
X265165042Y-110445000D03*
D11*
X270245042Y-110445000D03*
X260085042Y-110445000D03*
X79745042Y-110445000D03*
D10*
X74665042Y-110445000D03*
D11*
X69585042Y-110445000D03*
X84507542Y-186645000D03*
D10*
X79427542Y-186645000D03*
D11*
X74347542Y-186645000D03*
X122607542Y-167595000D03*
D10*
X117527542Y-167595000D03*
D11*
X112447542Y-167595000D03*
D10*
X127052542Y-186645000D03*
D11*
X132132542Y-186645000D03*
X121972542Y-186645000D03*
D10*
X188965042Y-110445000D03*
D11*
X183885042Y-110445000D03*
X194045042Y-110445000D03*
D10*
X303265042Y-110445000D03*
D11*
X308345042Y-110445000D03*
X298185042Y-110445000D03*
X227382542Y-148545000D03*
D10*
X222302542Y-148545000D03*
D11*
X217222542Y-148545000D03*
D10*
X165152542Y-148545000D03*
D11*
X160072542Y-148545000D03*
X170232542Y-148545000D03*
D12*
X150865042Y-193630000D03*
D10*
X208015042Y-186645000D03*
X265165042Y-178390000D03*
D11*
X213095042Y-186645000D03*
D12*
X265165042Y-193630000D03*
D11*
X202935042Y-186645000D03*
D10*
X150865042Y-178390000D03*
X131815042Y-110445000D03*
D11*
X126735042Y-110445000D03*
X136895042Y-110445000D03*
D10*
X174677542Y-167595000D03*
D11*
X179757542Y-167595000D03*
X169597542Y-167595000D03*
D10*
X108002542Y-148545000D03*
D11*
X113082542Y-148545000D03*
X102922542Y-148545000D03*
D10*
X112765042Y-110445000D03*
D11*
X117845042Y-110445000D03*
X107685042Y-110445000D03*
X198172542Y-148545000D03*
D10*
X203252542Y-148545000D03*
D11*
X208332542Y-148545000D03*
X145785042Y-110445000D03*
D10*
X150865042Y-110445000D03*
D11*
X155945042Y-110445000D03*
X255957542Y-167595000D03*
X245797542Y-167595000D03*
D10*
X250877542Y-167595000D03*
D11*
X288660042Y-129495000D03*
D10*
X293740042Y-129495000D03*
D11*
X298820042Y-129495000D03*
X336285042Y-110445000D03*
X346445042Y-110445000D03*
D10*
X341365042Y-110445000D03*
D11*
X146420042Y-129495000D03*
X136260042Y-129495000D03*
D10*
X141340042Y-129495000D03*
X198490042Y-129495000D03*
D11*
X203570042Y-129495000D03*
X193410042Y-129495000D03*
X289295042Y-110445000D03*
D10*
X284215042Y-110445000D03*
D11*
X279135042Y-110445000D03*
X336285042Y-167595000D03*
D10*
X341365042Y-167595000D03*
D11*
X346445042Y-167595000D03*
X283897542Y-167595000D03*
X294057542Y-167595000D03*
D10*
X288977542Y-167595000D03*
X298502542Y-148545000D03*
D11*
X303582542Y-148545000D03*
X293422542Y-148545000D03*
X226747542Y-167595000D03*
D10*
X231827542Y-167595000D03*
D11*
X236907542Y-167595000D03*
X294057542Y-186645000D03*
X283897542Y-186645000D03*
D10*
X288977542Y-186645000D03*
D11*
X310091292Y-167595000D03*
D10*
X315171292Y-167595000D03*
D11*
X320251292Y-167595000D03*
D10*
X212777542Y-167595000D03*
D11*
X217857542Y-167595000D03*
X207697542Y-167595000D03*
D10*
X127052542Y-148545000D03*
D11*
X132132542Y-148545000D03*
X121972542Y-148545000D03*
X341682542Y-186645000D03*
D10*
X336602542Y-186645000D03*
D11*
X331522542Y-186645000D03*
X117210042Y-129495000D03*
D10*
X122290042Y-129495000D03*
D11*
X127370042Y-129495000D03*
D10*
X217540042Y-129495000D03*
D11*
X212460042Y-129495000D03*
X222620042Y-129495000D03*
X189282542Y-148545000D03*
X179122542Y-148545000D03*
D10*
X184202542Y-148545000D03*
X322315042Y-110445000D03*
D11*
X317235042Y-110445000D03*
X327395042Y-110445000D03*
X150547542Y-167595000D03*
X160707542Y-167595000D03*
D10*
X155627542Y-167595000D03*
D11*
X275007542Y-167595000D03*
X264847542Y-167595000D03*
D10*
X269927542Y-167595000D03*
X208015042Y-110445000D03*
D11*
X202935042Y-110445000D03*
X213095042Y-110445000D03*
D10*
X146102542Y-148545000D03*
D11*
X151182542Y-148545000D03*
X141022542Y-148545000D03*
X232145042Y-110445000D03*
X221985042Y-110445000D03*
D10*
X227065042Y-110445000D03*
D11*
X98160042Y-129495000D03*
X108320042Y-129495000D03*
D10*
X103240042Y-129495000D03*
D11*
X317870042Y-129495000D03*
X307710042Y-129495000D03*
D10*
X312790042Y-129495000D03*
D11*
X236272542Y-148545000D03*
D10*
X241352542Y-148545000D03*
D11*
X246432542Y-148545000D03*
X76728792Y-148545000D03*
D10*
X81808792Y-148545000D03*
D11*
X86888792Y-148545000D03*
D10*
X86571292Y-167595000D03*
X98477542Y-159340000D03*
D11*
X81491292Y-167595000D03*
X91651292Y-167595000D03*
D12*
X98477542Y-174580000D03*
D10*
X74665042Y-159340000D03*
D12*
X74665042Y-174580000D03*
D11*
X74347542Y-129495000D03*
X84507542Y-129495000D03*
D10*
X79427542Y-129495000D03*
D11*
X279770042Y-129495000D03*
D10*
X274690042Y-129495000D03*
D11*
X269610042Y-129495000D03*
X260720042Y-129495000D03*
D10*
X255640042Y-129495000D03*
D11*
X250560042Y-129495000D03*
X274372542Y-148545000D03*
D10*
X279452542Y-148545000D03*
D11*
X284532542Y-148545000D03*
X98795042Y-110445000D03*
X88635042Y-110445000D03*
D10*
X93715042Y-110445000D03*
D11*
X184520042Y-129495000D03*
X174360042Y-129495000D03*
D10*
X179440042Y-129495000D03*
D11*
X188647542Y-167595000D03*
X198807542Y-167595000D03*
D10*
X193727542Y-167595000D03*
D11*
X255322542Y-148545000D03*
D10*
X260402542Y-148545000D03*
D11*
X265482542Y-148545000D03*
X174995042Y-110445000D03*
D10*
X169915042Y-110445000D03*
D11*
X164835042Y-110445000D03*
X331522542Y-129495000D03*
X341682542Y-129495000D03*
D10*
X336602542Y-129495000D03*
X136577542Y-167595000D03*
D11*
X131497542Y-167595000D03*
X141657542Y-167595000D03*
X231510042Y-129495000D03*
X241670042Y-129495000D03*
D10*
X236590042Y-129495000D03*
X160390042Y-129495000D03*
D11*
X165470042Y-129495000D03*
X155310042Y-129495000D03*
X241035042Y-110445000D03*
D10*
X246115042Y-110445000D03*
D11*
X251195042Y-110445000D03*
D10*
X317552542Y-156800000D03*
X341365042Y-156800000D03*
X329458792Y-148545000D03*
D12*
X317552542Y-141560000D03*
D11*
X334538792Y-148545000D03*
D12*
X341365042Y-141560000D03*
D11*
X324378792Y-148545000D03*
D13*
X114982542Y-138751250D03*
D14*
X117522542Y-138751250D03*
X120062542Y-138751250D03*
M02*
