G04 #@! TF.GenerationSoftware,KiCad,Pcbnew,(6.0.1)*
G04 #@! TF.CreationDate,2022-02-20T01:23:08-08:00*
G04 #@! TF.ProjectId,wkl60,776b6c36-302e-46b6-9963-61645f706362,rev?*
G04 #@! TF.SameCoordinates,Original*
G04 #@! TF.FileFunction,Paste,Bot*
G04 #@! TF.FilePolarity,Positive*
%FSLAX46Y46*%
G04 Gerber Fmt 4.6, Leading zero omitted, Abs format (unit mm)*
G04 Created by KiCad (PCBNEW (6.0.1)) date 2022-02-20 01:23:08*
%MOMM*%
%LPD*%
G01*
G04 APERTURE LIST*
G04 Aperture macros list*
%AMRoundRect*
0 Rectangle with rounded corners*
0 $1 Rounding radius*
0 $2 $3 $4 $5 $6 $7 $8 $9 X,Y pos of 4 corners*
0 Add a 4 corners polygon primitive as box body*
4,1,4,$2,$3,$4,$5,$6,$7,$8,$9,$2,$3,0*
0 Add four circle primitives for the rounded corners*
1,1,$1+$1,$2,$3*
1,1,$1+$1,$4,$5*
1,1,$1+$1,$6,$7*
1,1,$1+$1,$8,$9*
0 Add four rect primitives between the rounded corners*
20,1,$1+$1,$2,$3,$4,$5,0*
20,1,$1+$1,$4,$5,$6,$7,0*
20,1,$1+$1,$6,$7,$8,$9,0*
20,1,$1+$1,$8,$9,$2,$3,0*%
G04 Aperture macros list end*
%ADD10RoundRect,0.237500X-0.300000X-0.237500X0.300000X-0.237500X0.300000X0.237500X-0.300000X0.237500X0*%
%ADD11R,1.100000X1.100000*%
%ADD12R,2.000000X2.400000*%
%ADD13RoundRect,0.237500X0.300000X0.237500X-0.300000X0.237500X-0.300000X-0.237500X0.300000X-0.237500X0*%
%ADD14RoundRect,0.237500X0.237500X-0.300000X0.237500X0.300000X-0.237500X0.300000X-0.237500X-0.300000X0*%
%ADD15RoundRect,0.150000X-0.625000X0.150000X-0.625000X-0.150000X0.625000X-0.150000X0.625000X0.150000X0*%
%ADD16RoundRect,0.250000X-0.650000X0.350000X-0.650000X-0.350000X0.650000X-0.350000X0.650000X0.350000X0*%
%ADD17RoundRect,0.075000X0.075000X-0.662500X0.075000X0.662500X-0.075000X0.662500X-0.075000X-0.662500X0*%
%ADD18RoundRect,0.075000X0.662500X-0.075000X0.662500X0.075000X-0.662500X0.075000X-0.662500X-0.075000X0*%
%ADD19RoundRect,0.150000X0.150000X-0.587500X0.150000X0.587500X-0.150000X0.587500X-0.150000X-0.587500X0*%
%ADD20RoundRect,0.237500X-0.237500X0.300000X-0.237500X-0.300000X0.237500X-0.300000X0.237500X0.300000X0*%
%ADD21RoundRect,0.237500X0.237500X-0.250000X0.237500X0.250000X-0.237500X0.250000X-0.237500X-0.250000X0*%
%ADD22RoundRect,0.237500X0.250000X0.237500X-0.250000X0.237500X-0.250000X-0.237500X0.250000X-0.237500X0*%
G04 APERTURE END LIST*
D10*
X88620042Y-144220000D03*
X90345042Y-144220000D03*
D11*
X211983792Y-149945000D03*
X211983792Y-147145000D03*
X278658792Y-168995000D03*
X278658792Y-166195000D03*
X264371292Y-130895000D03*
X264371292Y-128095000D03*
D12*
X91507542Y-149420000D03*
X95207542Y-149420000D03*
D11*
X292946292Y-112032500D03*
X292946292Y-109232500D03*
X254846292Y-112032500D03*
X254846292Y-109232500D03*
X299296292Y-177307500D03*
X299296292Y-180107500D03*
X332633792Y-168995000D03*
X332633792Y-166195000D03*
X154833792Y-149945000D03*
X154833792Y-147145000D03*
X273896292Y-112032500D03*
X273896292Y-109232500D03*
X137371292Y-177307500D03*
X137371292Y-180107500D03*
D10*
X95245042Y-152145000D03*
X96970042Y-152145000D03*
D11*
X192933792Y-149945000D03*
X192933792Y-147145000D03*
X216746292Y-112032500D03*
X216746292Y-109232500D03*
X207221292Y-130895000D03*
X207221292Y-128095000D03*
D13*
X91420042Y-152120000D03*
X89695042Y-152120000D03*
D11*
X202458792Y-168995000D03*
X202458792Y-166195000D03*
X226271292Y-130895000D03*
X226271292Y-128095000D03*
D14*
X98692542Y-145357500D03*
X98692542Y-143632500D03*
D11*
X240558792Y-168995000D03*
X240558792Y-166195000D03*
X325490042Y-130886250D03*
X325490042Y-128086250D03*
D14*
X88138792Y-136438750D03*
X88138792Y-134713750D03*
D11*
X283421292Y-130895000D03*
X283421292Y-128095000D03*
X297708792Y-168995000D03*
X297708792Y-166195000D03*
X259608792Y-168995000D03*
X259608792Y-166195000D03*
X321521292Y-130896250D03*
X321521292Y-128096250D03*
X183408792Y-168995000D03*
X183408792Y-166195000D03*
X90540042Y-177307500D03*
X90540042Y-180107500D03*
X221508792Y-168995000D03*
X221508792Y-166195000D03*
X245321292Y-130895000D03*
X245321292Y-128095000D03*
X116733792Y-149945000D03*
X116733792Y-147145000D03*
X188171292Y-130895000D03*
X188171292Y-128095000D03*
X92921292Y-130895000D03*
X92921292Y-128095000D03*
X311996292Y-112032500D03*
X311996292Y-109232500D03*
X121496292Y-111845000D03*
X121496292Y-109045000D03*
X150071292Y-130895000D03*
X150071292Y-128095000D03*
X97683792Y-149945000D03*
X97683792Y-147145000D03*
X83396292Y-111845000D03*
X83396292Y-109045000D03*
X333003792Y-111838750D03*
X333003792Y-109038750D03*
D15*
X110765042Y-120057500D03*
X110765042Y-121057500D03*
X110765042Y-122057500D03*
X110765042Y-123057500D03*
D16*
X114640042Y-118757500D03*
X114640042Y-124357500D03*
D11*
X145308792Y-168995000D03*
X145308792Y-166195000D03*
X197696292Y-112032500D03*
X197696292Y-109232500D03*
X173883792Y-149945000D03*
X173883792Y-147145000D03*
X302471292Y-130895000D03*
X302471292Y-128095000D03*
D17*
X97258792Y-143182500D03*
X96758792Y-143182500D03*
X96258792Y-143182500D03*
X95758792Y-143182500D03*
X95258792Y-143182500D03*
X94758792Y-143182500D03*
X94258792Y-143182500D03*
X93758792Y-143182500D03*
X93258792Y-143182500D03*
X92758792Y-143182500D03*
X92258792Y-143182500D03*
X91758792Y-143182500D03*
D18*
X90346292Y-141770000D03*
X90346292Y-141270000D03*
X90346292Y-140770000D03*
X90346292Y-140270000D03*
X90346292Y-139770000D03*
X90346292Y-139270000D03*
X90346292Y-138770000D03*
X90346292Y-138270000D03*
X90346292Y-137770000D03*
X90346292Y-137270000D03*
X90346292Y-136770000D03*
X90346292Y-136270000D03*
D17*
X91758792Y-134857500D03*
X92258792Y-134857500D03*
X92758792Y-134857500D03*
X93258792Y-134857500D03*
X93758792Y-134857500D03*
X94258792Y-134857500D03*
X94758792Y-134857500D03*
X95258792Y-134857500D03*
X95758792Y-134857500D03*
X96258792Y-134857500D03*
X96758792Y-134857500D03*
X97258792Y-134857500D03*
D18*
X98671292Y-136270000D03*
X98671292Y-136770000D03*
X98671292Y-137270000D03*
X98671292Y-137770000D03*
X98671292Y-138270000D03*
X98671292Y-138770000D03*
X98671292Y-139270000D03*
X98671292Y-139770000D03*
X98671292Y-140270000D03*
X98671292Y-140770000D03*
X98671292Y-141270000D03*
X98671292Y-141770000D03*
D13*
X88095042Y-133195000D03*
X86370042Y-133195000D03*
D11*
X140546292Y-112032500D03*
X140546292Y-109232500D03*
X135783792Y-149945000D03*
X135783792Y-147145000D03*
X312790042Y-149746250D03*
X312790042Y-146946250D03*
X169121292Y-130895000D03*
X169121292Y-128095000D03*
D19*
X89882542Y-129370000D03*
X87982542Y-129370000D03*
X88932542Y-127495000D03*
D11*
X102446292Y-111845000D03*
X102446292Y-109045000D03*
X346921292Y-177307500D03*
X346921292Y-180107500D03*
D20*
X100838792Y-142651250D03*
X100838792Y-144376250D03*
D11*
X330693792Y-111846250D03*
X330693792Y-109046250D03*
X131021292Y-130895000D03*
X131021292Y-128095000D03*
D14*
X88795042Y-147607500D03*
X88795042Y-145882500D03*
D11*
X327077542Y-168995000D03*
X327077542Y-166195000D03*
X231033792Y-149945000D03*
X231033792Y-147145000D03*
D21*
X100107542Y-134020000D03*
X100107542Y-132195000D03*
D11*
X107208792Y-168995000D03*
X107208792Y-166195000D03*
X178646292Y-112032500D03*
X178646292Y-109232500D03*
X126258792Y-168995000D03*
X126258792Y-166195000D03*
D10*
X90395042Y-146020000D03*
X92120042Y-146020000D03*
D11*
X235796292Y-112032500D03*
X235796292Y-109232500D03*
D22*
X102307542Y-140595000D03*
X100482542Y-140595000D03*
D10*
X88070042Y-131607500D03*
X89795042Y-131607500D03*
D11*
X111971292Y-130895000D03*
X111971292Y-128095000D03*
X164358792Y-168995000D03*
X164358792Y-166195000D03*
X307233792Y-149756250D03*
X307233792Y-146956250D03*
X288183792Y-149757500D03*
X288183792Y-146957500D03*
X250083792Y-149945000D03*
X250083792Y-147145000D03*
X159596292Y-112032500D03*
X159596292Y-109232500D03*
D10*
X88932542Y-125257500D03*
X90657542Y-125257500D03*
D11*
X218333792Y-177307500D03*
X218333792Y-180107500D03*
D20*
X98482542Y-132245000D03*
X98482542Y-133970000D03*
D11*
X269133792Y-149757500D03*
X269133792Y-146957500D03*
M02*
