%FSLAX45Y45*%
G04 Gerber Fmt 4.5, Leading zero omitted, Abs format (unit mm)*
G04 Created by KiCad (PCBNEW (6.0.1)) date 2022-02-20 01:23:16*
%MOMM*%
%LPD*%
G01*
G04 APERTURE LIST*
%TA.AperFunction,Profile*%
%ADD10C,0.100000*%
%TD*%
%ADD11C,0.200000*%
%ADD12C,0.175000*%
%ADD13C,0.304800*%
%ADD14C,0.398780*%
G04 APERTURE END LIST*
D10*
X9530254Y-17712000D02*
G75*
G03*
X9292129Y-17950125I0J-238125D01*
G01*
X28900000Y-17550000D02*
X11750000Y-17550000D01*
X33510000Y-10171375D02*
X33765000Y-10171375D01*
X25240000Y-10171375D02*
X25170000Y-10171375D01*
X30247129Y-19299500D02*
X30247129Y-17950125D01*
X27870000Y-19537625D02*
G75*
G03*
X27220000Y-19537625I-325000J0D01*
G01*
X13745000Y-19537625D02*
X13405000Y-19537625D01*
X16590000Y-10171375D02*
X25170000Y-10171375D01*
X9054004Y-19537625D02*
X8974629Y-19537625D01*
X11850000Y-12005000D02*
X30226000Y-12005000D01*
X7895000Y-10171375D02*
X8095000Y-10171375D01*
X11355879Y-17950125D02*
X11355879Y-19299500D01*
X6831504Y-10171375D02*
G75*
G03*
X6593379Y-10409500I0J-238125D01*
G01*
X32310879Y-19299500D02*
G75*
G03*
X32549004Y-19537625I238125J0D01*
G01*
X31225000Y-10171375D02*
X31805000Y-10171375D01*
X9292129Y-19299500D02*
X9292129Y-17950125D01*
X33765000Y-10171375D02*
X34771504Y-10171375D01*
X26035000Y-10171375D02*
X31225000Y-10171375D01*
X28200000Y-19537625D02*
X28205000Y-19537625D01*
X28321000Y-19537625D02*
X30009004Y-19537625D01*
X26035000Y-10171375D02*
X25890000Y-10171375D01*
X6593379Y-19299500D02*
X6593379Y-10409500D01*
X6593379Y-19299500D02*
G75*
G03*
X6831504Y-19537625I238125J0D01*
G01*
X14395000Y-19537625D02*
X27220000Y-19537625D01*
X9530254Y-17712000D02*
X11117754Y-17712000D01*
X34771504Y-19537625D02*
G75*
G03*
X35009629Y-19299500I0J238125D01*
G01*
X13335000Y-19537625D02*
X11594004Y-19537625D01*
X31805000Y-10171375D02*
X32525000Y-10171375D01*
X27870000Y-19537625D02*
X28200000Y-19537625D01*
X14395000Y-19537625D02*
G75*
G03*
X13745000Y-19537625I-325000J0D01*
G01*
X30226000Y-12005000D02*
G75*
G03*
X30226000Y-11905000I0J50000D01*
G01*
X32310879Y-17950125D02*
X32310879Y-19299500D01*
X30009004Y-19537625D02*
G75*
G03*
X30247129Y-19299500I0J238125D01*
G01*
X11750000Y-17450000D02*
G75*
G03*
X11750000Y-17550000I0J-50000D01*
G01*
X32525000Y-10171375D02*
X32860000Y-10171375D01*
X35009629Y-10409500D02*
X35009629Y-19299500D01*
X15715000Y-10171375D02*
G75*
G03*
X16365000Y-10171375I325000J0D01*
G01*
X28900000Y-17550000D02*
G75*
G03*
X28900000Y-17450000I0J50000D01*
G01*
X13405000Y-19537625D02*
X13335000Y-19537625D01*
X8095000Y-10171375D02*
G75*
G03*
X8745000Y-10171375I325000J0D01*
G01*
X32860000Y-10171375D02*
G75*
G03*
X33510000Y-10171375I325000J0D01*
G01*
X9054004Y-19537625D02*
G75*
G03*
X9292129Y-19299500I0J238125D01*
G01*
X8974629Y-19537625D02*
X6831504Y-19537625D01*
X35009629Y-10409500D02*
G75*
G03*
X34771504Y-10171375I-238125J0D01*
G01*
X28205000Y-19537625D02*
X28321000Y-19537625D01*
X7895000Y-10171375D02*
X6831504Y-10171375D01*
X30485254Y-17712000D02*
G75*
G03*
X30247129Y-17950125I0J-238125D01*
G01*
X30226000Y-11905000D02*
X11850000Y-11905000D01*
X32549004Y-19537625D02*
X34771504Y-19537625D01*
X8905000Y-10171375D02*
X15660000Y-10171375D01*
X16590000Y-10171375D02*
X16365000Y-10171375D01*
X11355879Y-17950125D02*
G75*
G03*
X11117754Y-17712000I-238125J0D01*
G01*
X11355879Y-19299500D02*
G75*
G03*
X11594004Y-19537625I238125J0D01*
G01*
X8745000Y-10171375D02*
X8905000Y-10171375D01*
X11750000Y-17450000D02*
X28900000Y-17450000D01*
X32072754Y-17712000D02*
X30485254Y-17712000D01*
X15715000Y-10171375D02*
X15660000Y-10171375D01*
X11850000Y-11905000D02*
G75*
G03*
X11850000Y-12005000I0J-50000D01*
G01*
X25240000Y-10171375D02*
G75*
G03*
X25890000Y-10171375I325000J0D01*
G01*
X32310879Y-17950125D02*
G75*
G03*
X32072754Y-17712000I-238125J0D01*
G01*
D11*
D12*
X6871004Y-10957000D02*
X7046004Y-11132000D01*
X7046004Y-10957000D02*
X6871004Y-11132000D01*
X7347254Y-12862000D02*
X7522254Y-13037000D01*
X7522254Y-12862000D02*
X7347254Y-13037000D01*
X7347254Y-18577000D02*
X7522254Y-18752000D01*
X7522254Y-18577000D02*
X7347254Y-18752000D01*
X7585379Y-14767000D02*
X7760379Y-14942000D01*
X7760379Y-14767000D02*
X7585379Y-14942000D01*
X7887004Y-10957000D02*
X8062004Y-11132000D01*
X8062004Y-10957000D02*
X7887004Y-11132000D01*
X8061629Y-16672000D02*
X8236629Y-16847000D01*
X8236629Y-16672000D02*
X8061629Y-16847000D01*
X8363254Y-12862000D02*
X8538254Y-13037000D01*
X8538254Y-12862000D02*
X8363254Y-13037000D01*
X8363254Y-18577000D02*
X8538254Y-18752000D01*
X8538254Y-18577000D02*
X8363254Y-18752000D01*
X8601379Y-14767000D02*
X8776379Y-14942000D01*
X8776379Y-14767000D02*
X8601379Y-14942000D01*
X8776004Y-10957000D02*
X8951004Y-11132000D01*
X8951004Y-10957000D02*
X8776004Y-11132000D01*
X9077629Y-16672000D02*
X9252629Y-16847000D01*
X9252629Y-16672000D02*
X9077629Y-16847000D01*
X9728504Y-12862000D02*
X9903504Y-13037000D01*
X9903504Y-12862000D02*
X9728504Y-13037000D01*
X9792004Y-10957000D02*
X9967004Y-11132000D01*
X9967004Y-10957000D02*
X9792004Y-11132000D01*
X10204754Y-14767000D02*
X10379754Y-14942000D01*
X10379754Y-14767000D02*
X10204754Y-14942000D01*
X10681004Y-10957000D02*
X10856004Y-11132000D01*
X10856004Y-10957000D02*
X10681004Y-11132000D01*
X10744504Y-12862000D02*
X10919504Y-13037000D01*
X10919504Y-12862000D02*
X10744504Y-13037000D01*
X11157254Y-16672000D02*
X11332254Y-16847000D01*
X11332254Y-16672000D02*
X11157254Y-16847000D01*
X11220754Y-14767000D02*
X11395754Y-14942000D01*
X11395754Y-14767000D02*
X11220754Y-14942000D01*
X11633504Y-12862000D02*
X11808504Y-13037000D01*
X11808504Y-12862000D02*
X11633504Y-13037000D01*
X11697004Y-10957000D02*
X11872004Y-11132000D01*
X11872004Y-10957000D02*
X11697004Y-11132000D01*
X12109754Y-14767000D02*
X12284754Y-14942000D01*
X12284754Y-14767000D02*
X12109754Y-14942000D01*
X12109754Y-18577000D02*
X12284754Y-18752000D01*
X12284754Y-18577000D02*
X12109754Y-18752000D01*
X12173254Y-16672000D02*
X12348254Y-16847000D01*
X12348254Y-16672000D02*
X12173254Y-16847000D01*
X12586004Y-10957000D02*
X12761004Y-11132000D01*
X12761004Y-10957000D02*
X12586004Y-11132000D01*
X12649504Y-12862000D02*
X12824504Y-13037000D01*
X12824504Y-12862000D02*
X12649504Y-13037000D01*
X13062254Y-16672000D02*
X13237254Y-16847000D01*
X13237254Y-16672000D02*
X13062254Y-16847000D01*
X13125754Y-14767000D02*
X13300754Y-14942000D01*
X13300754Y-14767000D02*
X13125754Y-14942000D01*
X13125754Y-18577000D02*
X13300754Y-18752000D01*
X13300754Y-18577000D02*
X13125754Y-18752000D01*
X13538504Y-12862000D02*
X13713504Y-13037000D01*
X13713504Y-12862000D02*
X13538504Y-13037000D01*
X13602004Y-10957000D02*
X13777004Y-11132000D01*
X13777004Y-10957000D02*
X13602004Y-11132000D01*
X14014754Y-14767000D02*
X14189754Y-14942000D01*
X14189754Y-14767000D02*
X14014754Y-14942000D01*
X14078254Y-16672000D02*
X14253254Y-16847000D01*
X14253254Y-16672000D02*
X14078254Y-16847000D01*
X14491004Y-10957000D02*
X14666004Y-11132000D01*
X14666004Y-10957000D02*
X14491004Y-11132000D01*
X14554504Y-12862000D02*
X14729504Y-13037000D01*
X14729504Y-12862000D02*
X14554504Y-13037000D01*
X14967254Y-16672000D02*
X15142254Y-16847000D01*
X15142254Y-16672000D02*
X14967254Y-16847000D01*
X15030754Y-14767000D02*
X15205754Y-14942000D01*
X15205754Y-14767000D02*
X15030754Y-14942000D01*
X15443504Y-12862000D02*
X15618504Y-13037000D01*
X15618504Y-12862000D02*
X15443504Y-13037000D01*
X15507004Y-10957000D02*
X15682004Y-11132000D01*
X15682004Y-10957000D02*
X15507004Y-11132000D01*
X15919754Y-14767000D02*
X16094754Y-14942000D01*
X16094754Y-14767000D02*
X15919754Y-14942000D01*
X15983254Y-16672000D02*
X16158254Y-16847000D01*
X16158254Y-16672000D02*
X15983254Y-16847000D01*
X16396004Y-10957000D02*
X16571004Y-11132000D01*
X16571004Y-10957000D02*
X16396004Y-11132000D01*
X16459504Y-12862000D02*
X16634504Y-13037000D01*
X16634504Y-12862000D02*
X16459504Y-13037000D01*
X16872254Y-16672000D02*
X17047254Y-16847000D01*
X17047254Y-16672000D02*
X16872254Y-16847000D01*
X16935754Y-14767000D02*
X17110754Y-14942000D01*
X17110754Y-14767000D02*
X16935754Y-14942000D01*
X17348504Y-12862000D02*
X17523504Y-13037000D01*
X17523504Y-12862000D02*
X17348504Y-13037000D01*
X17412004Y-10957000D02*
X17587004Y-11132000D01*
X17587004Y-10957000D02*
X17412004Y-11132000D01*
X17824754Y-14767000D02*
X17999754Y-14942000D01*
X17999754Y-14767000D02*
X17824754Y-14942000D01*
X17888254Y-16672000D02*
X18063254Y-16847000D01*
X18063254Y-16672000D02*
X17888254Y-16847000D01*
X18301004Y-10957000D02*
X18476004Y-11132000D01*
X18476004Y-10957000D02*
X18301004Y-11132000D01*
X18364504Y-12862000D02*
X18539504Y-13037000D01*
X18539504Y-12862000D02*
X18364504Y-13037000D01*
X18777254Y-16672000D02*
X18952254Y-16847000D01*
X18952254Y-16672000D02*
X18777254Y-16847000D01*
X18840754Y-14767000D02*
X19015754Y-14942000D01*
X19015754Y-14767000D02*
X18840754Y-14942000D01*
X19253504Y-12862000D02*
X19428504Y-13037000D01*
X19428504Y-12862000D02*
X19253504Y-13037000D01*
X19317004Y-10957000D02*
X19492004Y-11132000D01*
X19492004Y-10957000D02*
X19317004Y-11132000D01*
X19729754Y-14767000D02*
X19904754Y-14942000D01*
X19904754Y-14767000D02*
X19729754Y-14942000D01*
X19793254Y-16672000D02*
X19968254Y-16847000D01*
X19968254Y-16672000D02*
X19793254Y-16847000D01*
X20206004Y-10957000D02*
X20381004Y-11132000D01*
X20381004Y-10957000D02*
X20206004Y-11132000D01*
X20206004Y-18577000D02*
X20381004Y-18752000D01*
X20381004Y-18577000D02*
X20206004Y-18752000D01*
X20269504Y-12862000D02*
X20444504Y-13037000D01*
X20444504Y-12862000D02*
X20269504Y-13037000D01*
X20682254Y-16672000D02*
X20857254Y-16847000D01*
X20857254Y-16672000D02*
X20682254Y-16847000D01*
X20745754Y-14767000D02*
X20920754Y-14942000D01*
X20920754Y-14767000D02*
X20745754Y-14942000D01*
X21158504Y-12862000D02*
X21333504Y-13037000D01*
X21333504Y-12862000D02*
X21158504Y-13037000D01*
X21222004Y-10957000D02*
X21397004Y-11132000D01*
X21397004Y-10957000D02*
X21222004Y-11132000D01*
X21222004Y-18577000D02*
X21397004Y-18752000D01*
X21397004Y-18577000D02*
X21222004Y-18752000D01*
X21634754Y-14767000D02*
X21809754Y-14942000D01*
X21809754Y-14767000D02*
X21634754Y-14942000D01*
X21698254Y-16672000D02*
X21873254Y-16847000D01*
X21873254Y-16672000D02*
X21698254Y-16847000D01*
X22111004Y-10957000D02*
X22286004Y-11132000D01*
X22286004Y-10957000D02*
X22111004Y-11132000D01*
X22174504Y-12862000D02*
X22349504Y-13037000D01*
X22349504Y-12862000D02*
X22174504Y-13037000D01*
X22587254Y-16672000D02*
X22762254Y-16847000D01*
X22762254Y-16672000D02*
X22587254Y-16847000D01*
X22650754Y-14767000D02*
X22825754Y-14942000D01*
X22825754Y-14767000D02*
X22650754Y-14942000D01*
X23063504Y-12862000D02*
X23238504Y-13037000D01*
X23238504Y-12862000D02*
X23063504Y-13037000D01*
X23127004Y-10957000D02*
X23302004Y-11132000D01*
X23302004Y-10957000D02*
X23127004Y-11132000D01*
X23539754Y-14767000D02*
X23714754Y-14942000D01*
X23714754Y-14767000D02*
X23539754Y-14942000D01*
X23603254Y-16672000D02*
X23778254Y-16847000D01*
X23778254Y-16672000D02*
X23603254Y-16847000D01*
X24016004Y-10957000D02*
X24191004Y-11132000D01*
X24191004Y-10957000D02*
X24016004Y-11132000D01*
X24079504Y-12862000D02*
X24254504Y-13037000D01*
X24254504Y-12862000D02*
X24079504Y-13037000D01*
X24492254Y-16672000D02*
X24667254Y-16847000D01*
X24667254Y-16672000D02*
X24492254Y-16847000D01*
X24555754Y-14767000D02*
X24730754Y-14942000D01*
X24730754Y-14767000D02*
X24555754Y-14942000D01*
X24968504Y-12862000D02*
X25143504Y-13037000D01*
X25143504Y-12862000D02*
X24968504Y-13037000D01*
X25032004Y-10957000D02*
X25207004Y-11132000D01*
X25207004Y-10957000D02*
X25032004Y-11132000D01*
X25444754Y-14767000D02*
X25619754Y-14942000D01*
X25619754Y-14767000D02*
X25444754Y-14942000D01*
X25508254Y-16672000D02*
X25683254Y-16847000D01*
X25683254Y-16672000D02*
X25508254Y-16847000D01*
X25921004Y-10957000D02*
X26096004Y-11132000D01*
X26096004Y-10957000D02*
X25921004Y-11132000D01*
X25984504Y-12862000D02*
X26159504Y-13037000D01*
X26159504Y-12862000D02*
X25984504Y-13037000D01*
X26397254Y-16672000D02*
X26572254Y-16847000D01*
X26572254Y-16672000D02*
X26397254Y-16847000D01*
X26460754Y-14767000D02*
X26635754Y-14942000D01*
X26635754Y-14767000D02*
X26460754Y-14942000D01*
X26873504Y-12862000D02*
X27048504Y-13037000D01*
X27048504Y-12862000D02*
X26873504Y-13037000D01*
X26937004Y-10957000D02*
X27112004Y-11132000D01*
X27112004Y-10957000D02*
X26937004Y-11132000D01*
X27349754Y-14767000D02*
X27524754Y-14942000D01*
X27524754Y-14767000D02*
X27349754Y-14942000D01*
X27413254Y-16672000D02*
X27588254Y-16847000D01*
X27588254Y-16672000D02*
X27413254Y-16847000D01*
X27826004Y-10957000D02*
X28001004Y-11132000D01*
X28001004Y-10957000D02*
X27826004Y-11132000D01*
X27889504Y-12862000D02*
X28064504Y-13037000D01*
X28064504Y-12862000D02*
X27889504Y-13037000D01*
X28302254Y-16672000D02*
X28477254Y-16847000D01*
X28477254Y-16672000D02*
X28302254Y-16847000D01*
X28302254Y-18577000D02*
X28477254Y-18752000D01*
X28477254Y-18577000D02*
X28302254Y-18752000D01*
X28365754Y-14767000D02*
X28540754Y-14942000D01*
X28540754Y-14767000D02*
X28365754Y-14942000D01*
X28778504Y-12862000D02*
X28953504Y-13037000D01*
X28953504Y-12862000D02*
X28778504Y-13037000D01*
X28842004Y-10957000D02*
X29017004Y-11132000D01*
X29017004Y-10957000D02*
X28842004Y-11132000D01*
X29254754Y-14767000D02*
X29429754Y-14942000D01*
X29429754Y-14767000D02*
X29254754Y-14942000D01*
X29318254Y-16672000D02*
X29493254Y-16847000D01*
X29493254Y-16672000D02*
X29318254Y-16847000D01*
X29318254Y-18577000D02*
X29493254Y-18752000D01*
X29493254Y-18577000D02*
X29318254Y-18752000D01*
X29731004Y-10957000D02*
X29906004Y-11132000D01*
X29906004Y-10957000D02*
X29731004Y-11132000D01*
X29794504Y-12862000D02*
X29969504Y-13037000D01*
X29969504Y-12862000D02*
X29794504Y-13037000D01*
X30270754Y-14767000D02*
X30445754Y-14942000D01*
X30445754Y-14767000D02*
X30270754Y-14942000D01*
X30683504Y-12862000D02*
X30858504Y-13037000D01*
X30858504Y-12862000D02*
X30683504Y-13037000D01*
X30747004Y-10957000D02*
X30922004Y-11132000D01*
X30922004Y-10957000D02*
X30747004Y-11132000D01*
X30921629Y-16672000D02*
X31096629Y-16847000D01*
X31096629Y-16672000D02*
X30921629Y-16847000D01*
X31636004Y-10957000D02*
X31811004Y-11132000D01*
X31811004Y-10957000D02*
X31636004Y-11132000D01*
X31699504Y-12862000D02*
X31874504Y-13037000D01*
X31874504Y-12862000D02*
X31699504Y-13037000D01*
X31937629Y-16672000D02*
X32112629Y-16847000D01*
X32112629Y-16672000D02*
X31937629Y-16847000D01*
X32350379Y-14767000D02*
X32525379Y-14942000D01*
X32525379Y-14767000D02*
X32350379Y-14942000D01*
X32652004Y-10957000D02*
X32827004Y-11132000D01*
X32827004Y-10957000D02*
X32652004Y-11132000D01*
X33064754Y-12862000D02*
X33239754Y-13037000D01*
X33239754Y-12862000D02*
X33064754Y-13037000D01*
X33064754Y-18577000D02*
X33239754Y-18752000D01*
X33239754Y-18577000D02*
X33064754Y-18752000D01*
X33366379Y-14767000D02*
X33541379Y-14942000D01*
X33541379Y-14767000D02*
X33366379Y-14942000D01*
X33541004Y-10957000D02*
X33716004Y-11132000D01*
X33716004Y-10957000D02*
X33541004Y-11132000D01*
X33541004Y-16672000D02*
X33716004Y-16847000D01*
X33716004Y-16672000D02*
X33541004Y-16847000D01*
X34080754Y-12862000D02*
X34255754Y-13037000D01*
X34255754Y-12862000D02*
X34080754Y-13037000D01*
X34080754Y-18577000D02*
X34255754Y-18752000D01*
X34255754Y-18577000D02*
X34080754Y-18752000D01*
X34557004Y-10957000D02*
X34732004Y-11132000D01*
X34732004Y-10957000D02*
X34557004Y-11132000D01*
X34557004Y-16672000D02*
X34732004Y-16847000D01*
X34732004Y-16672000D02*
X34557004Y-16847000D01*
D13*
X7618904Y-17458000D02*
G75*
G03*
X7618904Y-17458000I-152400J0D01*
G01*
X10000154Y-17458000D02*
G75*
G03*
X10000154Y-17458000I-152400J0D01*
G01*
X15238904Y-19363000D02*
G75*
G03*
X15238904Y-19363000I-152400J0D01*
G01*
X26668904Y-19363000D02*
G75*
G03*
X26668904Y-19363000I-152400J0D01*
G01*
X31907654Y-14156000D02*
G75*
G03*
X31907654Y-14156000I-152400J0D01*
G01*
X34288904Y-14156000D02*
G75*
G03*
X34288904Y-14156000I-152400J0D01*
G01*
D14*
X7466504Y-10845110D02*
X7466504Y-11243890D01*
X7267114Y-11044500D02*
X7665894Y-11044500D01*
X7466504Y-15734610D02*
X7466504Y-16133390D01*
X7267114Y-15934000D02*
X7665894Y-15934000D01*
X7942754Y-12750110D02*
X7942754Y-13148890D01*
X7743364Y-12949500D02*
X8142144Y-12949500D01*
X7942754Y-18465110D02*
X7942754Y-18863890D01*
X7743364Y-18664500D02*
X8142144Y-18664500D01*
X8180879Y-14655110D02*
X8180879Y-15053890D01*
X7981489Y-14854500D02*
X8380269Y-14854500D01*
X8657129Y-16560110D02*
X8657129Y-16958890D01*
X8457739Y-16759500D02*
X8856519Y-16759500D01*
X9371504Y-10845110D02*
X9371504Y-11243890D01*
X9172114Y-11044500D02*
X9570894Y-11044500D01*
X9847754Y-15734610D02*
X9847754Y-16133390D01*
X9648364Y-15934000D02*
X10047144Y-15934000D01*
X10324004Y-12750110D02*
X10324004Y-13148890D01*
X10124614Y-12949500D02*
X10523394Y-12949500D01*
X10800254Y-14655110D02*
X10800254Y-15053890D01*
X10600864Y-14854500D02*
X10999644Y-14854500D01*
X11276504Y-10845110D02*
X11276504Y-11243890D01*
X11077114Y-11044500D02*
X11475894Y-11044500D01*
X11752754Y-16560110D02*
X11752754Y-16958890D01*
X11553364Y-16759500D02*
X11952144Y-16759500D01*
X12229004Y-12750110D02*
X12229004Y-13148890D01*
X12029614Y-12949500D02*
X12428394Y-12949500D01*
X12705254Y-14655110D02*
X12705254Y-15053890D01*
X12505864Y-14854500D02*
X12904644Y-14854500D01*
X12705254Y-18465110D02*
X12705254Y-18863890D01*
X12505864Y-18664500D02*
X12904644Y-18664500D01*
X13181504Y-10845110D02*
X13181504Y-11243890D01*
X12982114Y-11044500D02*
X13380894Y-11044500D01*
X13657754Y-16560110D02*
X13657754Y-16958890D01*
X13458364Y-16759500D02*
X13857144Y-16759500D01*
X14134004Y-12750110D02*
X14134004Y-13148890D01*
X13934614Y-12949500D02*
X14333394Y-12949500D01*
X14610254Y-14655110D02*
X14610254Y-15053890D01*
X14410864Y-14854500D02*
X14809644Y-14854500D01*
X15086504Y-10845110D02*
X15086504Y-11243890D01*
X14887114Y-11044500D02*
X15285894Y-11044500D01*
X15086504Y-17639610D02*
X15086504Y-18038390D01*
X14887114Y-17839000D02*
X15285894Y-17839000D01*
X15562754Y-16560110D02*
X15562754Y-16958890D01*
X15363364Y-16759500D02*
X15762144Y-16759500D01*
X16039004Y-12750110D02*
X16039004Y-13148890D01*
X15839614Y-12949500D02*
X16238394Y-12949500D01*
X16515254Y-14655110D02*
X16515254Y-15053890D01*
X16315864Y-14854500D02*
X16714644Y-14854500D01*
X16991504Y-10845110D02*
X16991504Y-11243890D01*
X16792114Y-11044500D02*
X17190894Y-11044500D01*
X17467754Y-16560110D02*
X17467754Y-16958890D01*
X17268364Y-16759500D02*
X17667144Y-16759500D01*
X17944004Y-12750110D02*
X17944004Y-13148890D01*
X17744614Y-12949500D02*
X18143394Y-12949500D01*
X18420254Y-14655110D02*
X18420254Y-15053890D01*
X18220864Y-14854500D02*
X18619644Y-14854500D01*
X18896504Y-10845110D02*
X18896504Y-11243890D01*
X18697114Y-11044500D02*
X19095894Y-11044500D01*
X19372754Y-16560110D02*
X19372754Y-16958890D01*
X19173364Y-16759500D02*
X19572144Y-16759500D01*
X19849004Y-12750110D02*
X19849004Y-13148890D01*
X19649614Y-12949500D02*
X20048394Y-12949500D01*
X20325254Y-14655110D02*
X20325254Y-15053890D01*
X20125864Y-14854500D02*
X20524644Y-14854500D01*
X20801504Y-10845110D02*
X20801504Y-11243890D01*
X20602114Y-11044500D02*
X21000894Y-11044500D01*
X20801504Y-18465110D02*
X20801504Y-18863890D01*
X20602114Y-18664500D02*
X21000894Y-18664500D01*
X21277754Y-16560110D02*
X21277754Y-16958890D01*
X21078364Y-16759500D02*
X21477144Y-16759500D01*
X21754004Y-12750110D02*
X21754004Y-13148890D01*
X21554614Y-12949500D02*
X21953394Y-12949500D01*
X22230254Y-14655110D02*
X22230254Y-15053890D01*
X22030864Y-14854500D02*
X22429644Y-14854500D01*
X22706504Y-10845110D02*
X22706504Y-11243890D01*
X22507114Y-11044500D02*
X22905894Y-11044500D01*
X23182754Y-16560110D02*
X23182754Y-16958890D01*
X22983364Y-16759500D02*
X23382144Y-16759500D01*
X23659004Y-12750110D02*
X23659004Y-13148890D01*
X23459614Y-12949500D02*
X23858394Y-12949500D01*
X24135254Y-14655110D02*
X24135254Y-15053890D01*
X23935864Y-14854500D02*
X24334644Y-14854500D01*
X24611504Y-10845110D02*
X24611504Y-11243890D01*
X24412114Y-11044500D02*
X24810894Y-11044500D01*
X25087754Y-16560110D02*
X25087754Y-16958890D01*
X24888364Y-16759500D02*
X25287144Y-16759500D01*
X25564004Y-12750110D02*
X25564004Y-13148890D01*
X25364614Y-12949500D02*
X25763394Y-12949500D01*
X26040254Y-14655110D02*
X26040254Y-15053890D01*
X25840864Y-14854500D02*
X26239644Y-14854500D01*
X26516504Y-10845110D02*
X26516504Y-11243890D01*
X26317114Y-11044500D02*
X26715894Y-11044500D01*
X26516504Y-17639610D02*
X26516504Y-18038390D01*
X26317114Y-17839000D02*
X26715894Y-17839000D01*
X26992754Y-16560110D02*
X26992754Y-16958890D01*
X26793364Y-16759500D02*
X27192144Y-16759500D01*
X27469004Y-12750110D02*
X27469004Y-13148890D01*
X27269614Y-12949500D02*
X27668394Y-12949500D01*
X27945254Y-14655110D02*
X27945254Y-15053890D01*
X27745864Y-14854500D02*
X28144644Y-14854500D01*
X28421504Y-10845110D02*
X28421504Y-11243890D01*
X28222114Y-11044500D02*
X28620894Y-11044500D01*
X28897754Y-16560110D02*
X28897754Y-16958890D01*
X28698364Y-16759500D02*
X29097144Y-16759500D01*
X28897754Y-18465110D02*
X28897754Y-18863890D01*
X28698364Y-18664500D02*
X29097144Y-18664500D01*
X29374004Y-12750110D02*
X29374004Y-13148890D01*
X29174614Y-12949500D02*
X29573394Y-12949500D01*
X29850254Y-14655110D02*
X29850254Y-15053890D01*
X29650864Y-14854500D02*
X30049644Y-14854500D01*
X30326504Y-10845110D02*
X30326504Y-11243890D01*
X30127114Y-11044500D02*
X30525894Y-11044500D01*
X31279004Y-12750110D02*
X31279004Y-13148890D01*
X31079614Y-12949500D02*
X31478394Y-12949500D01*
X31517129Y-16560110D02*
X31517129Y-16958890D01*
X31317739Y-16759500D02*
X31716519Y-16759500D01*
X31755254Y-15480610D02*
X31755254Y-15879390D01*
X31555864Y-15680000D02*
X31954644Y-15680000D01*
X32231504Y-10845110D02*
X32231504Y-11243890D01*
X32032114Y-11044500D02*
X32430894Y-11044500D01*
X32945879Y-14655110D02*
X32945879Y-15053890D01*
X32746489Y-14854500D02*
X33145269Y-14854500D01*
X33660254Y-12750110D02*
X33660254Y-13148890D01*
X33460864Y-12949500D02*
X33859644Y-12949500D01*
X33660254Y-18465110D02*
X33660254Y-18863890D01*
X33460864Y-18664500D02*
X33859644Y-18664500D01*
X34136504Y-10845110D02*
X34136504Y-11243890D01*
X33937114Y-11044500D02*
X34335894Y-11044500D01*
X34136504Y-15480610D02*
X34136504Y-15879390D01*
X33937114Y-15680000D02*
X34335894Y-15680000D01*
X34136504Y-16560110D02*
X34136504Y-16958890D01*
X33937114Y-16759500D02*
X34335894Y-16759500D01*
D11*
X6845998Y-19853101D02*
X6845998Y-19653101D01*
X6893617Y-19653101D01*
X6922189Y-19662625D01*
X6941236Y-19681673D01*
X6950760Y-19700720D01*
X6960284Y-19738815D01*
X6960284Y-19767387D01*
X6950760Y-19805482D01*
X6941236Y-19824530D01*
X6922189Y-19843577D01*
X6893617Y-19853101D01*
X6845998Y-19853101D01*
X7045998Y-19853101D02*
X7045998Y-19719768D01*
X7045998Y-19757863D02*
X7055522Y-19738815D01*
X7065046Y-19729292D01*
X7084093Y-19719768D01*
X7103141Y-19719768D01*
X7169808Y-19853101D02*
X7169808Y-19719768D01*
X7169808Y-19653101D02*
X7160284Y-19662625D01*
X7169808Y-19672149D01*
X7179331Y-19662625D01*
X7169808Y-19653101D01*
X7169808Y-19672149D01*
X7293617Y-19853101D02*
X7274570Y-19843577D01*
X7265046Y-19824530D01*
X7265046Y-19653101D01*
X7398379Y-19853101D02*
X7379331Y-19843577D01*
X7369808Y-19824530D01*
X7369808Y-19653101D01*
X7626951Y-19853101D02*
X7626951Y-19653101D01*
X7693617Y-19795958D01*
X7760284Y-19653101D01*
X7760284Y-19853101D01*
X7941236Y-19853101D02*
X7941236Y-19748339D01*
X7931712Y-19729292D01*
X7912665Y-19719768D01*
X7874570Y-19719768D01*
X7855522Y-19729292D01*
X7941236Y-19843577D02*
X7922189Y-19853101D01*
X7874570Y-19853101D01*
X7855522Y-19843577D01*
X7845998Y-19824530D01*
X7845998Y-19805482D01*
X7855522Y-19786435D01*
X7874570Y-19776911D01*
X7922189Y-19776911D01*
X7941236Y-19767387D01*
X8036474Y-19719768D02*
X8036474Y-19919768D01*
X8036474Y-19729292D02*
X8055522Y-19719768D01*
X8093617Y-19719768D01*
X8112665Y-19729292D01*
X8122189Y-19738815D01*
X8131712Y-19757863D01*
X8131712Y-19815006D01*
X8122189Y-19834054D01*
X8112665Y-19843577D01*
X8093617Y-19853101D01*
X8055522Y-19853101D01*
X8036474Y-19843577D01*
X8217427Y-19834054D02*
X8226951Y-19843577D01*
X8217427Y-19853101D01*
X8207903Y-19843577D01*
X8217427Y-19834054D01*
X8217427Y-19853101D01*
X8217427Y-19729292D02*
X8226951Y-19738815D01*
X8217427Y-19748339D01*
X8207903Y-19738815D01*
X8217427Y-19729292D01*
X8217427Y-19748339D01*
D12*
X6413379Y-20095125D02*
X6588379Y-20270125D01*
X6588379Y-20095125D02*
X6413379Y-20270125D01*
D11*
X6950760Y-20273101D02*
X6836474Y-20273101D01*
X6893617Y-20273101D02*
X6893617Y-20073101D01*
X6874570Y-20101673D01*
X6855522Y-20120720D01*
X6836474Y-20130244D01*
X7036474Y-20254054D02*
X7045998Y-20263577D01*
X7036474Y-20273101D01*
X7026951Y-20263577D01*
X7036474Y-20254054D01*
X7036474Y-20273101D01*
X7112665Y-20073101D02*
X7245998Y-20073101D01*
X7160284Y-20273101D01*
X7417427Y-20073101D02*
X7322189Y-20073101D01*
X7312665Y-20168339D01*
X7322189Y-20158815D01*
X7341236Y-20149292D01*
X7388855Y-20149292D01*
X7407903Y-20158815D01*
X7417427Y-20168339D01*
X7426951Y-20187387D01*
X7426951Y-20235006D01*
X7417427Y-20254054D01*
X7407903Y-20263577D01*
X7388855Y-20273101D01*
X7341236Y-20273101D01*
X7322189Y-20263577D01*
X7312665Y-20254054D01*
X7550760Y-20073101D02*
X7569808Y-20073101D01*
X7588855Y-20082625D01*
X7598379Y-20092149D01*
X7607903Y-20111196D01*
X7617427Y-20149292D01*
X7617427Y-20196911D01*
X7607903Y-20235006D01*
X7598379Y-20254054D01*
X7588855Y-20263577D01*
X7569808Y-20273101D01*
X7550760Y-20273101D01*
X7531712Y-20263577D01*
X7522189Y-20254054D01*
X7512665Y-20235006D01*
X7503141Y-20196911D01*
X7503141Y-20149292D01*
X7512665Y-20111196D01*
X7522189Y-20092149D01*
X7531712Y-20082625D01*
X7550760Y-20073101D01*
X7703141Y-20273101D02*
X7703141Y-20139768D01*
X7703141Y-20158815D02*
X7712665Y-20149292D01*
X7731712Y-20139768D01*
X7760284Y-20139768D01*
X7779331Y-20149292D01*
X7788855Y-20168339D01*
X7788855Y-20273101D01*
X7788855Y-20168339D02*
X7798379Y-20149292D01*
X7817427Y-20139768D01*
X7845998Y-20139768D01*
X7865046Y-20149292D01*
X7874570Y-20168339D01*
X7874570Y-20273101D01*
X7969808Y-20273101D02*
X7969808Y-20139768D01*
X7969808Y-20158815D02*
X7979331Y-20149292D01*
X7998379Y-20139768D01*
X8026951Y-20139768D01*
X8045998Y-20149292D01*
X8055522Y-20168339D01*
X8055522Y-20273101D01*
X8055522Y-20168339D02*
X8065046Y-20149292D01*
X8084093Y-20139768D01*
X8112665Y-20139768D01*
X8131712Y-20149292D01*
X8141236Y-20168339D01*
X8141236Y-20273101D01*
X8531713Y-20063577D02*
X8360284Y-20320720D01*
X8788855Y-20073101D02*
X8807903Y-20073101D01*
X8826951Y-20082625D01*
X8836474Y-20092149D01*
X8845998Y-20111196D01*
X8855522Y-20149292D01*
X8855522Y-20196911D01*
X8845998Y-20235006D01*
X8836474Y-20254054D01*
X8826951Y-20263577D01*
X8807903Y-20273101D01*
X8788855Y-20273101D01*
X8769808Y-20263577D01*
X8760284Y-20254054D01*
X8750760Y-20235006D01*
X8741236Y-20196911D01*
X8741236Y-20149292D01*
X8750760Y-20111196D01*
X8760284Y-20092149D01*
X8769808Y-20082625D01*
X8788855Y-20073101D01*
X8941236Y-20254054D02*
X8950760Y-20263577D01*
X8941236Y-20273101D01*
X8931713Y-20263577D01*
X8941236Y-20254054D01*
X8941236Y-20273101D01*
X9074570Y-20073101D02*
X9093617Y-20073101D01*
X9112665Y-20082625D01*
X9122189Y-20092149D01*
X9131713Y-20111196D01*
X9141236Y-20149292D01*
X9141236Y-20196911D01*
X9131713Y-20235006D01*
X9122189Y-20254054D01*
X9112665Y-20263577D01*
X9093617Y-20273101D01*
X9074570Y-20273101D01*
X9055522Y-20263577D01*
X9045998Y-20254054D01*
X9036474Y-20235006D01*
X9026951Y-20196911D01*
X9026951Y-20149292D01*
X9036474Y-20111196D01*
X9045998Y-20092149D01*
X9055522Y-20082625D01*
X9074570Y-20073101D01*
X9312665Y-20073101D02*
X9274570Y-20073101D01*
X9255522Y-20082625D01*
X9245998Y-20092149D01*
X9226951Y-20120720D01*
X9217427Y-20158815D01*
X9217427Y-20235006D01*
X9226951Y-20254054D01*
X9236474Y-20263577D01*
X9255522Y-20273101D01*
X9293617Y-20273101D01*
X9312665Y-20263577D01*
X9322189Y-20254054D01*
X9331713Y-20235006D01*
X9331713Y-20187387D01*
X9322189Y-20168339D01*
X9312665Y-20158815D01*
X9293617Y-20149292D01*
X9255522Y-20149292D01*
X9236474Y-20158815D01*
X9226951Y-20168339D01*
X9217427Y-20187387D01*
X9445998Y-20158815D02*
X9426951Y-20149292D01*
X9417427Y-20139768D01*
X9407903Y-20120720D01*
X9407903Y-20111196D01*
X9417427Y-20092149D01*
X9426951Y-20082625D01*
X9445998Y-20073101D01*
X9484093Y-20073101D01*
X9503141Y-20082625D01*
X9512665Y-20092149D01*
X9522189Y-20111196D01*
X9522189Y-20120720D01*
X9512665Y-20139768D01*
X9503141Y-20149292D01*
X9484093Y-20158815D01*
X9445998Y-20158815D01*
X9426951Y-20168339D01*
X9417427Y-20177863D01*
X9407903Y-20196911D01*
X9407903Y-20235006D01*
X9417427Y-20254054D01*
X9426951Y-20263577D01*
X9445998Y-20273101D01*
X9484093Y-20273101D01*
X9503141Y-20263577D01*
X9512665Y-20254054D01*
X9522189Y-20235006D01*
X9522189Y-20196911D01*
X9512665Y-20177863D01*
X9503141Y-20168339D01*
X9484093Y-20158815D01*
X9617427Y-20273101D02*
X9655522Y-20273101D01*
X9674570Y-20263577D01*
X9684093Y-20254054D01*
X9703141Y-20225482D01*
X9712665Y-20187387D01*
X9712665Y-20111196D01*
X9703141Y-20092149D01*
X9693617Y-20082625D01*
X9674570Y-20073101D01*
X9636474Y-20073101D01*
X9617427Y-20082625D01*
X9607903Y-20092149D01*
X9598379Y-20111196D01*
X9598379Y-20158815D01*
X9607903Y-20177863D01*
X9617427Y-20187387D01*
X9636474Y-20196911D01*
X9674570Y-20196911D01*
X9693617Y-20187387D01*
X9703141Y-20177863D01*
X9712665Y-20158815D01*
X9788855Y-20073101D02*
X9788855Y-20111196D01*
X9865046Y-20073101D02*
X9865046Y-20111196D01*
X10160284Y-20349292D02*
X10150760Y-20339768D01*
X10131713Y-20311196D01*
X10122189Y-20292149D01*
X10112665Y-20263577D01*
X10103141Y-20215958D01*
X10103141Y-20177863D01*
X10112665Y-20130244D01*
X10122189Y-20101673D01*
X10131713Y-20082625D01*
X10150760Y-20054054D01*
X10160284Y-20044530D01*
X10341236Y-20273101D02*
X10226951Y-20273101D01*
X10284093Y-20273101D02*
X10284093Y-20073101D01*
X10265046Y-20101673D01*
X10245998Y-20120720D01*
X10226951Y-20130244D01*
X10417427Y-20092149D02*
X10426951Y-20082625D01*
X10445998Y-20073101D01*
X10493617Y-20073101D01*
X10512665Y-20082625D01*
X10522189Y-20092149D01*
X10531713Y-20111196D01*
X10531713Y-20130244D01*
X10522189Y-20158815D01*
X10407903Y-20273101D01*
X10531713Y-20273101D01*
X10655522Y-20073101D02*
X10674570Y-20073101D01*
X10693617Y-20082625D01*
X10703141Y-20092149D01*
X10712665Y-20111196D01*
X10722189Y-20149292D01*
X10722189Y-20196911D01*
X10712665Y-20235006D01*
X10703141Y-20254054D01*
X10693617Y-20263577D01*
X10674570Y-20273101D01*
X10655522Y-20273101D01*
X10636474Y-20263577D01*
X10626951Y-20254054D01*
X10617427Y-20235006D01*
X10607903Y-20196911D01*
X10607903Y-20149292D01*
X10617427Y-20111196D01*
X10626951Y-20092149D01*
X10636474Y-20082625D01*
X10655522Y-20073101D01*
X10960284Y-20273101D02*
X10960284Y-20073101D01*
X11045998Y-20273101D02*
X11045998Y-20168339D01*
X11036474Y-20149292D01*
X11017427Y-20139768D01*
X10988855Y-20139768D01*
X10969808Y-20149292D01*
X10960284Y-20158815D01*
X11169808Y-20273101D02*
X11150760Y-20263577D01*
X11141236Y-20254054D01*
X11131713Y-20235006D01*
X11131713Y-20177863D01*
X11141236Y-20158815D01*
X11150760Y-20149292D01*
X11169808Y-20139768D01*
X11198379Y-20139768D01*
X11217427Y-20149292D01*
X11226951Y-20158815D01*
X11236474Y-20177863D01*
X11236474Y-20235006D01*
X11226951Y-20254054D01*
X11217427Y-20263577D01*
X11198379Y-20273101D01*
X11169808Y-20273101D01*
X11350760Y-20273101D02*
X11331712Y-20263577D01*
X11322189Y-20244530D01*
X11322189Y-20073101D01*
X11503141Y-20263577D02*
X11484093Y-20273101D01*
X11445998Y-20273101D01*
X11426951Y-20263577D01*
X11417427Y-20244530D01*
X11417427Y-20168339D01*
X11426951Y-20149292D01*
X11445998Y-20139768D01*
X11484093Y-20139768D01*
X11503141Y-20149292D01*
X11512665Y-20168339D01*
X11512665Y-20187387D01*
X11417427Y-20206435D01*
X11588855Y-20263577D02*
X11607903Y-20273101D01*
X11645998Y-20273101D01*
X11665046Y-20263577D01*
X11674570Y-20244530D01*
X11674570Y-20235006D01*
X11665046Y-20215958D01*
X11645998Y-20206435D01*
X11617427Y-20206435D01*
X11598379Y-20196911D01*
X11588855Y-20177863D01*
X11588855Y-20168339D01*
X11598379Y-20149292D01*
X11617427Y-20139768D01*
X11645998Y-20139768D01*
X11665046Y-20149292D01*
X11741236Y-20349292D02*
X11750760Y-20339768D01*
X11769808Y-20311196D01*
X11779331Y-20292149D01*
X11788855Y-20263577D01*
X11798379Y-20215958D01*
X11798379Y-20177863D01*
X11788855Y-20130244D01*
X11779331Y-20101673D01*
X11769808Y-20082625D01*
X11750760Y-20054054D01*
X11741236Y-20044530D01*
X12103141Y-20349292D02*
X12093617Y-20339768D01*
X12074570Y-20311196D01*
X12065046Y-20292149D01*
X12055522Y-20263577D01*
X12045998Y-20215958D01*
X12045998Y-20177863D01*
X12055522Y-20130244D01*
X12065046Y-20101673D01*
X12074570Y-20082625D01*
X12093617Y-20054054D01*
X12103141Y-20044530D01*
X12179331Y-20139768D02*
X12179331Y-20273101D01*
X12179331Y-20158815D02*
X12188855Y-20149292D01*
X12207903Y-20139768D01*
X12236474Y-20139768D01*
X12255522Y-20149292D01*
X12265046Y-20168339D01*
X12265046Y-20273101D01*
X12388855Y-20273101D02*
X12369808Y-20263577D01*
X12360284Y-20254054D01*
X12350760Y-20235006D01*
X12350760Y-20177863D01*
X12360284Y-20158815D01*
X12369808Y-20149292D01*
X12388855Y-20139768D01*
X12417427Y-20139768D01*
X12436474Y-20149292D01*
X12445998Y-20158815D01*
X12455522Y-20177863D01*
X12455522Y-20235006D01*
X12445998Y-20254054D01*
X12436474Y-20263577D01*
X12417427Y-20273101D01*
X12388855Y-20273101D01*
X12512665Y-20139768D02*
X12588855Y-20139768D01*
X12541236Y-20073101D02*
X12541236Y-20244530D01*
X12550760Y-20263577D01*
X12569808Y-20273101D01*
X12588855Y-20273101D01*
X12807903Y-20139768D02*
X12807903Y-20339768D01*
X12807903Y-20149292D02*
X12826951Y-20139768D01*
X12865046Y-20139768D01*
X12884093Y-20149292D01*
X12893617Y-20158815D01*
X12903141Y-20177863D01*
X12903141Y-20235006D01*
X12893617Y-20254054D01*
X12884093Y-20263577D01*
X12865046Y-20273101D01*
X12826951Y-20273101D01*
X12807903Y-20263577D01*
X13017427Y-20273101D02*
X12998379Y-20263577D01*
X12988855Y-20244530D01*
X12988855Y-20073101D01*
X13179331Y-20273101D02*
X13179331Y-20168339D01*
X13169808Y-20149292D01*
X13150760Y-20139768D01*
X13112665Y-20139768D01*
X13093617Y-20149292D01*
X13179331Y-20263577D02*
X13160284Y-20273101D01*
X13112665Y-20273101D01*
X13093617Y-20263577D01*
X13084093Y-20244530D01*
X13084093Y-20225482D01*
X13093617Y-20206435D01*
X13112665Y-20196911D01*
X13160284Y-20196911D01*
X13179331Y-20187387D01*
X13245998Y-20139768D02*
X13322189Y-20139768D01*
X13274570Y-20073101D02*
X13274570Y-20244530D01*
X13284093Y-20263577D01*
X13303141Y-20273101D01*
X13322189Y-20273101D01*
X13465046Y-20263577D02*
X13445998Y-20273101D01*
X13407903Y-20273101D01*
X13388855Y-20263577D01*
X13379331Y-20244530D01*
X13379331Y-20168339D01*
X13388855Y-20149292D01*
X13407903Y-20139768D01*
X13445998Y-20139768D01*
X13465046Y-20149292D01*
X13474570Y-20168339D01*
X13474570Y-20187387D01*
X13379331Y-20206435D01*
X13645998Y-20273101D02*
X13645998Y-20073101D01*
X13645998Y-20263577D02*
X13626951Y-20273101D01*
X13588855Y-20273101D01*
X13569808Y-20263577D01*
X13560284Y-20254054D01*
X13550760Y-20235006D01*
X13550760Y-20177863D01*
X13560284Y-20158815D01*
X13569808Y-20149292D01*
X13588855Y-20139768D01*
X13626951Y-20139768D01*
X13645998Y-20149292D01*
X13722189Y-20349292D02*
X13731712Y-20339768D01*
X13750760Y-20311196D01*
X13760284Y-20292149D01*
X13769808Y-20263577D01*
X13779331Y-20215958D01*
X13779331Y-20177863D01*
X13769808Y-20130244D01*
X13760284Y-20101673D01*
X13750760Y-20082625D01*
X13731712Y-20054054D01*
X13722189Y-20044530D01*
X6588379Y-20477625D02*
G75*
G03*
X6588379Y-20477625I-100000J0D01*
G01*
X6826951Y-20368101D02*
X6950760Y-20368101D01*
X6884093Y-20444292D01*
X6912665Y-20444292D01*
X6931712Y-20453815D01*
X6941236Y-20463339D01*
X6950760Y-20482387D01*
X6950760Y-20530006D01*
X6941236Y-20549054D01*
X6931712Y-20558577D01*
X6912665Y-20568101D01*
X6855522Y-20568101D01*
X6836474Y-20558577D01*
X6826951Y-20549054D01*
X7036474Y-20549054D02*
X7045998Y-20558577D01*
X7036474Y-20568101D01*
X7026951Y-20558577D01*
X7036474Y-20549054D01*
X7036474Y-20568101D01*
X7169808Y-20368101D02*
X7188855Y-20368101D01*
X7207903Y-20377625D01*
X7217427Y-20387149D01*
X7226951Y-20406196D01*
X7236474Y-20444292D01*
X7236474Y-20491911D01*
X7226951Y-20530006D01*
X7217427Y-20549054D01*
X7207903Y-20558577D01*
X7188855Y-20568101D01*
X7169808Y-20568101D01*
X7150760Y-20558577D01*
X7141236Y-20549054D01*
X7131712Y-20530006D01*
X7122189Y-20491911D01*
X7122189Y-20444292D01*
X7131712Y-20406196D01*
X7141236Y-20387149D01*
X7150760Y-20377625D01*
X7169808Y-20368101D01*
X7407903Y-20434768D02*
X7407903Y-20568101D01*
X7360284Y-20358577D02*
X7312665Y-20501435D01*
X7436474Y-20501435D01*
X7541236Y-20453815D02*
X7522189Y-20444292D01*
X7512665Y-20434768D01*
X7503141Y-20415720D01*
X7503141Y-20406196D01*
X7512665Y-20387149D01*
X7522189Y-20377625D01*
X7541236Y-20368101D01*
X7579331Y-20368101D01*
X7598379Y-20377625D01*
X7607903Y-20387149D01*
X7617427Y-20406196D01*
X7617427Y-20415720D01*
X7607903Y-20434768D01*
X7598379Y-20444292D01*
X7579331Y-20453815D01*
X7541236Y-20453815D01*
X7522189Y-20463339D01*
X7512665Y-20472863D01*
X7503141Y-20491911D01*
X7503141Y-20530006D01*
X7512665Y-20549054D01*
X7522189Y-20558577D01*
X7541236Y-20568101D01*
X7579331Y-20568101D01*
X7598379Y-20558577D01*
X7607903Y-20549054D01*
X7617427Y-20530006D01*
X7617427Y-20491911D01*
X7607903Y-20472863D01*
X7598379Y-20463339D01*
X7579331Y-20453815D01*
X7703141Y-20568101D02*
X7703141Y-20434768D01*
X7703141Y-20453815D02*
X7712665Y-20444292D01*
X7731712Y-20434768D01*
X7760284Y-20434768D01*
X7779331Y-20444292D01*
X7788855Y-20463339D01*
X7788855Y-20568101D01*
X7788855Y-20463339D02*
X7798379Y-20444292D01*
X7817427Y-20434768D01*
X7845998Y-20434768D01*
X7865046Y-20444292D01*
X7874570Y-20463339D01*
X7874570Y-20568101D01*
X7969808Y-20568101D02*
X7969808Y-20434768D01*
X7969808Y-20453815D02*
X7979331Y-20444292D01*
X7998379Y-20434768D01*
X8026951Y-20434768D01*
X8045998Y-20444292D01*
X8055522Y-20463339D01*
X8055522Y-20568101D01*
X8055522Y-20463339D02*
X8065046Y-20444292D01*
X8084093Y-20434768D01*
X8112665Y-20434768D01*
X8131712Y-20444292D01*
X8141236Y-20463339D01*
X8141236Y-20568101D01*
X8531713Y-20358577D02*
X8360284Y-20615720D01*
X8788855Y-20368101D02*
X8807903Y-20368101D01*
X8826951Y-20377625D01*
X8836474Y-20387149D01*
X8845998Y-20406196D01*
X8855522Y-20444292D01*
X8855522Y-20491911D01*
X8845998Y-20530006D01*
X8836474Y-20549054D01*
X8826951Y-20558577D01*
X8807903Y-20568101D01*
X8788855Y-20568101D01*
X8769808Y-20558577D01*
X8760284Y-20549054D01*
X8750760Y-20530006D01*
X8741236Y-20491911D01*
X8741236Y-20444292D01*
X8750760Y-20406196D01*
X8760284Y-20387149D01*
X8769808Y-20377625D01*
X8788855Y-20368101D01*
X8941236Y-20549054D02*
X8950760Y-20558577D01*
X8941236Y-20568101D01*
X8931713Y-20558577D01*
X8941236Y-20549054D01*
X8941236Y-20568101D01*
X9141236Y-20568101D02*
X9026951Y-20568101D01*
X9084093Y-20568101D02*
X9084093Y-20368101D01*
X9065046Y-20396673D01*
X9045998Y-20415720D01*
X9026951Y-20425244D01*
X9217427Y-20387149D02*
X9226951Y-20377625D01*
X9245998Y-20368101D01*
X9293617Y-20368101D01*
X9312665Y-20377625D01*
X9322189Y-20387149D01*
X9331713Y-20406196D01*
X9331713Y-20425244D01*
X9322189Y-20453815D01*
X9207903Y-20568101D01*
X9331713Y-20568101D01*
X9455522Y-20368101D02*
X9474570Y-20368101D01*
X9493617Y-20377625D01*
X9503141Y-20387149D01*
X9512665Y-20406196D01*
X9522189Y-20444292D01*
X9522189Y-20491911D01*
X9512665Y-20530006D01*
X9503141Y-20549054D01*
X9493617Y-20558577D01*
X9474570Y-20568101D01*
X9455522Y-20568101D01*
X9436474Y-20558577D01*
X9426951Y-20549054D01*
X9417427Y-20530006D01*
X9407903Y-20491911D01*
X9407903Y-20444292D01*
X9417427Y-20406196D01*
X9426951Y-20387149D01*
X9436474Y-20377625D01*
X9455522Y-20368101D01*
X9645998Y-20368101D02*
X9665046Y-20368101D01*
X9684093Y-20377625D01*
X9693617Y-20387149D01*
X9703141Y-20406196D01*
X9712665Y-20444292D01*
X9712665Y-20491911D01*
X9703141Y-20530006D01*
X9693617Y-20549054D01*
X9684093Y-20558577D01*
X9665046Y-20568101D01*
X9645998Y-20568101D01*
X9626951Y-20558577D01*
X9617427Y-20549054D01*
X9607903Y-20530006D01*
X9598379Y-20491911D01*
X9598379Y-20444292D01*
X9607903Y-20406196D01*
X9617427Y-20387149D01*
X9626951Y-20377625D01*
X9645998Y-20368101D01*
X9788855Y-20368101D02*
X9788855Y-20406196D01*
X9865046Y-20368101D02*
X9865046Y-20406196D01*
X10160284Y-20644292D02*
X10150760Y-20634768D01*
X10131713Y-20606196D01*
X10122189Y-20587149D01*
X10112665Y-20558577D01*
X10103141Y-20510958D01*
X10103141Y-20472863D01*
X10112665Y-20425244D01*
X10122189Y-20396673D01*
X10131713Y-20377625D01*
X10150760Y-20349054D01*
X10160284Y-20339530D01*
X10322189Y-20368101D02*
X10284093Y-20368101D01*
X10265046Y-20377625D01*
X10255522Y-20387149D01*
X10236474Y-20415720D01*
X10226951Y-20453815D01*
X10226951Y-20530006D01*
X10236474Y-20549054D01*
X10245998Y-20558577D01*
X10265046Y-20568101D01*
X10303141Y-20568101D01*
X10322189Y-20558577D01*
X10331713Y-20549054D01*
X10341236Y-20530006D01*
X10341236Y-20482387D01*
X10331713Y-20463339D01*
X10322189Y-20453815D01*
X10303141Y-20444292D01*
X10265046Y-20444292D01*
X10245998Y-20453815D01*
X10236474Y-20463339D01*
X10226951Y-20482387D01*
X10579332Y-20568101D02*
X10579332Y-20368101D01*
X10665046Y-20568101D02*
X10665046Y-20463339D01*
X10655522Y-20444292D01*
X10636474Y-20434768D01*
X10607903Y-20434768D01*
X10588855Y-20444292D01*
X10579332Y-20453815D01*
X10788855Y-20568101D02*
X10769808Y-20558577D01*
X10760284Y-20549054D01*
X10750760Y-20530006D01*
X10750760Y-20472863D01*
X10760284Y-20453815D01*
X10769808Y-20444292D01*
X10788855Y-20434768D01*
X10817427Y-20434768D01*
X10836474Y-20444292D01*
X10845998Y-20453815D01*
X10855522Y-20472863D01*
X10855522Y-20530006D01*
X10845998Y-20549054D01*
X10836474Y-20558577D01*
X10817427Y-20568101D01*
X10788855Y-20568101D01*
X10969808Y-20568101D02*
X10950760Y-20558577D01*
X10941236Y-20539530D01*
X10941236Y-20368101D01*
X11122189Y-20558577D02*
X11103141Y-20568101D01*
X11065046Y-20568101D01*
X11045998Y-20558577D01*
X11036474Y-20539530D01*
X11036474Y-20463339D01*
X11045998Y-20444292D01*
X11065046Y-20434768D01*
X11103141Y-20434768D01*
X11122189Y-20444292D01*
X11131713Y-20463339D01*
X11131713Y-20482387D01*
X11036474Y-20501435D01*
X11207903Y-20558577D02*
X11226951Y-20568101D01*
X11265046Y-20568101D01*
X11284093Y-20558577D01*
X11293617Y-20539530D01*
X11293617Y-20530006D01*
X11284093Y-20510958D01*
X11265046Y-20501435D01*
X11236474Y-20501435D01*
X11217427Y-20491911D01*
X11207903Y-20472863D01*
X11207903Y-20463339D01*
X11217427Y-20444292D01*
X11236474Y-20434768D01*
X11265046Y-20434768D01*
X11284093Y-20444292D01*
X11360284Y-20644292D02*
X11369808Y-20634768D01*
X11388855Y-20606196D01*
X11398379Y-20587149D01*
X11407903Y-20558577D01*
X11417427Y-20510958D01*
X11417427Y-20472863D01*
X11407903Y-20425244D01*
X11398379Y-20396673D01*
X11388855Y-20377625D01*
X11369808Y-20349054D01*
X11360284Y-20339530D01*
X11722189Y-20644292D02*
X11712665Y-20634768D01*
X11693617Y-20606196D01*
X11684093Y-20587149D01*
X11674570Y-20558577D01*
X11665046Y-20510958D01*
X11665046Y-20472863D01*
X11674570Y-20425244D01*
X11684093Y-20396673D01*
X11693617Y-20377625D01*
X11712665Y-20349054D01*
X11722189Y-20339530D01*
X11798379Y-20434768D02*
X11798379Y-20568101D01*
X11798379Y-20453815D02*
X11807903Y-20444292D01*
X11826951Y-20434768D01*
X11855522Y-20434768D01*
X11874570Y-20444292D01*
X11884093Y-20463339D01*
X11884093Y-20568101D01*
X12007903Y-20568101D02*
X11988855Y-20558577D01*
X11979331Y-20549054D01*
X11969808Y-20530006D01*
X11969808Y-20472863D01*
X11979331Y-20453815D01*
X11988855Y-20444292D01*
X12007903Y-20434768D01*
X12036474Y-20434768D01*
X12055522Y-20444292D01*
X12065046Y-20453815D01*
X12074570Y-20472863D01*
X12074570Y-20530006D01*
X12065046Y-20549054D01*
X12055522Y-20558577D01*
X12036474Y-20568101D01*
X12007903Y-20568101D01*
X12131712Y-20434768D02*
X12207903Y-20434768D01*
X12160284Y-20368101D02*
X12160284Y-20539530D01*
X12169808Y-20558577D01*
X12188855Y-20568101D01*
X12207903Y-20568101D01*
X12426951Y-20434768D02*
X12426951Y-20634768D01*
X12426951Y-20444292D02*
X12445998Y-20434768D01*
X12484093Y-20434768D01*
X12503141Y-20444292D01*
X12512665Y-20453815D01*
X12522189Y-20472863D01*
X12522189Y-20530006D01*
X12512665Y-20549054D01*
X12503141Y-20558577D01*
X12484093Y-20568101D01*
X12445998Y-20568101D01*
X12426951Y-20558577D01*
X12636474Y-20568101D02*
X12617427Y-20558577D01*
X12607903Y-20539530D01*
X12607903Y-20368101D01*
X12798379Y-20568101D02*
X12798379Y-20463339D01*
X12788855Y-20444292D01*
X12769808Y-20434768D01*
X12731712Y-20434768D01*
X12712665Y-20444292D01*
X12798379Y-20558577D02*
X12779331Y-20568101D01*
X12731712Y-20568101D01*
X12712665Y-20558577D01*
X12703141Y-20539530D01*
X12703141Y-20520482D01*
X12712665Y-20501435D01*
X12731712Y-20491911D01*
X12779331Y-20491911D01*
X12798379Y-20482387D01*
X12865046Y-20434768D02*
X12941236Y-20434768D01*
X12893617Y-20368101D02*
X12893617Y-20539530D01*
X12903141Y-20558577D01*
X12922189Y-20568101D01*
X12941236Y-20568101D01*
X13084093Y-20558577D02*
X13065046Y-20568101D01*
X13026951Y-20568101D01*
X13007903Y-20558577D01*
X12998379Y-20539530D01*
X12998379Y-20463339D01*
X13007903Y-20444292D01*
X13026951Y-20434768D01*
X13065046Y-20434768D01*
X13084093Y-20444292D01*
X13093617Y-20463339D01*
X13093617Y-20482387D01*
X12998379Y-20501435D01*
X13265046Y-20568101D02*
X13265046Y-20368101D01*
X13265046Y-20558577D02*
X13245998Y-20568101D01*
X13207903Y-20568101D01*
X13188855Y-20558577D01*
X13179331Y-20549054D01*
X13169808Y-20530006D01*
X13169808Y-20472863D01*
X13179331Y-20453815D01*
X13188855Y-20444292D01*
X13207903Y-20434768D01*
X13245998Y-20434768D01*
X13265046Y-20444292D01*
X13341236Y-20644292D02*
X13350760Y-20634768D01*
X13369808Y-20606196D01*
X13379331Y-20587149D01*
X13388855Y-20558577D01*
X13398379Y-20510958D01*
X13398379Y-20472863D01*
X13388855Y-20425244D01*
X13379331Y-20396673D01*
X13369808Y-20377625D01*
X13350760Y-20349054D01*
X13341236Y-20339530D01*
X6488379Y-20697625D02*
X6488379Y-20897625D01*
X6388379Y-20797625D02*
X6588379Y-20797625D01*
X6826951Y-20688101D02*
X6950760Y-20688101D01*
X6884093Y-20764292D01*
X6912665Y-20764292D01*
X6931712Y-20773815D01*
X6941236Y-20783339D01*
X6950760Y-20802387D01*
X6950760Y-20850006D01*
X6941236Y-20869054D01*
X6931712Y-20878577D01*
X6912665Y-20888101D01*
X6855522Y-20888101D01*
X6836474Y-20878577D01*
X6826951Y-20869054D01*
X7036474Y-20869054D02*
X7045998Y-20878577D01*
X7036474Y-20888101D01*
X7026951Y-20878577D01*
X7036474Y-20869054D01*
X7036474Y-20888101D01*
X7141236Y-20888101D02*
X7179331Y-20888101D01*
X7198379Y-20878577D01*
X7207903Y-20869054D01*
X7226951Y-20840482D01*
X7236474Y-20802387D01*
X7236474Y-20726196D01*
X7226951Y-20707149D01*
X7217427Y-20697625D01*
X7198379Y-20688101D01*
X7160284Y-20688101D01*
X7141236Y-20697625D01*
X7131712Y-20707149D01*
X7122189Y-20726196D01*
X7122189Y-20773815D01*
X7131712Y-20792863D01*
X7141236Y-20802387D01*
X7160284Y-20811911D01*
X7198379Y-20811911D01*
X7217427Y-20802387D01*
X7226951Y-20792863D01*
X7236474Y-20773815D01*
X7350760Y-20773815D02*
X7331712Y-20764292D01*
X7322189Y-20754768D01*
X7312665Y-20735720D01*
X7312665Y-20726196D01*
X7322189Y-20707149D01*
X7331712Y-20697625D01*
X7350760Y-20688101D01*
X7388855Y-20688101D01*
X7407903Y-20697625D01*
X7417427Y-20707149D01*
X7426951Y-20726196D01*
X7426951Y-20735720D01*
X7417427Y-20754768D01*
X7407903Y-20764292D01*
X7388855Y-20773815D01*
X7350760Y-20773815D01*
X7331712Y-20783339D01*
X7322189Y-20792863D01*
X7312665Y-20811911D01*
X7312665Y-20850006D01*
X7322189Y-20869054D01*
X7331712Y-20878577D01*
X7350760Y-20888101D01*
X7388855Y-20888101D01*
X7407903Y-20878577D01*
X7417427Y-20869054D01*
X7426951Y-20850006D01*
X7426951Y-20811911D01*
X7417427Y-20792863D01*
X7407903Y-20783339D01*
X7388855Y-20773815D01*
X7541236Y-20773815D02*
X7522189Y-20764292D01*
X7512665Y-20754768D01*
X7503141Y-20735720D01*
X7503141Y-20726196D01*
X7512665Y-20707149D01*
X7522189Y-20697625D01*
X7541236Y-20688101D01*
X7579331Y-20688101D01*
X7598379Y-20697625D01*
X7607903Y-20707149D01*
X7617427Y-20726196D01*
X7617427Y-20735720D01*
X7607903Y-20754768D01*
X7598379Y-20764292D01*
X7579331Y-20773815D01*
X7541236Y-20773815D01*
X7522189Y-20783339D01*
X7512665Y-20792863D01*
X7503141Y-20811911D01*
X7503141Y-20850006D01*
X7512665Y-20869054D01*
X7522189Y-20878577D01*
X7541236Y-20888101D01*
X7579331Y-20888101D01*
X7598379Y-20878577D01*
X7607903Y-20869054D01*
X7617427Y-20850006D01*
X7617427Y-20811911D01*
X7607903Y-20792863D01*
X7598379Y-20783339D01*
X7579331Y-20773815D01*
X7703141Y-20888101D02*
X7703141Y-20754768D01*
X7703141Y-20773815D02*
X7712665Y-20764292D01*
X7731712Y-20754768D01*
X7760284Y-20754768D01*
X7779331Y-20764292D01*
X7788855Y-20783339D01*
X7788855Y-20888101D01*
X7788855Y-20783339D02*
X7798379Y-20764292D01*
X7817427Y-20754768D01*
X7845998Y-20754768D01*
X7865046Y-20764292D01*
X7874570Y-20783339D01*
X7874570Y-20888101D01*
X7969808Y-20888101D02*
X7969808Y-20754768D01*
X7969808Y-20773815D02*
X7979331Y-20764292D01*
X7998379Y-20754768D01*
X8026951Y-20754768D01*
X8045998Y-20764292D01*
X8055522Y-20783339D01*
X8055522Y-20888101D01*
X8055522Y-20783339D02*
X8065046Y-20764292D01*
X8084093Y-20754768D01*
X8112665Y-20754768D01*
X8131712Y-20764292D01*
X8141236Y-20783339D01*
X8141236Y-20888101D01*
X8531713Y-20678577D02*
X8360284Y-20935720D01*
X8788855Y-20688101D02*
X8807903Y-20688101D01*
X8826951Y-20697625D01*
X8836474Y-20707149D01*
X8845998Y-20726196D01*
X8855522Y-20764292D01*
X8855522Y-20811911D01*
X8845998Y-20850006D01*
X8836474Y-20869054D01*
X8826951Y-20878577D01*
X8807903Y-20888101D01*
X8788855Y-20888101D01*
X8769808Y-20878577D01*
X8760284Y-20869054D01*
X8750760Y-20850006D01*
X8741236Y-20811911D01*
X8741236Y-20764292D01*
X8750760Y-20726196D01*
X8760284Y-20707149D01*
X8769808Y-20697625D01*
X8788855Y-20688101D01*
X8941236Y-20869054D02*
X8950760Y-20878577D01*
X8941236Y-20888101D01*
X8931713Y-20878577D01*
X8941236Y-20869054D01*
X8941236Y-20888101D01*
X9141236Y-20888101D02*
X9026951Y-20888101D01*
X9084093Y-20888101D02*
X9084093Y-20688101D01*
X9065046Y-20716673D01*
X9045998Y-20735720D01*
X9026951Y-20745244D01*
X9322189Y-20688101D02*
X9226951Y-20688101D01*
X9217427Y-20783339D01*
X9226951Y-20773815D01*
X9245998Y-20764292D01*
X9293617Y-20764292D01*
X9312665Y-20773815D01*
X9322189Y-20783339D01*
X9331713Y-20802387D01*
X9331713Y-20850006D01*
X9322189Y-20869054D01*
X9312665Y-20878577D01*
X9293617Y-20888101D01*
X9245998Y-20888101D01*
X9226951Y-20878577D01*
X9217427Y-20869054D01*
X9398379Y-20688101D02*
X9531713Y-20688101D01*
X9445998Y-20888101D01*
X9645998Y-20688101D02*
X9665046Y-20688101D01*
X9684093Y-20697625D01*
X9693617Y-20707149D01*
X9703141Y-20726196D01*
X9712665Y-20764292D01*
X9712665Y-20811911D01*
X9703141Y-20850006D01*
X9693617Y-20869054D01*
X9684093Y-20878577D01*
X9665046Y-20888101D01*
X9645998Y-20888101D01*
X9626951Y-20878577D01*
X9617427Y-20869054D01*
X9607903Y-20850006D01*
X9598379Y-20811911D01*
X9598379Y-20764292D01*
X9607903Y-20726196D01*
X9617427Y-20707149D01*
X9626951Y-20697625D01*
X9645998Y-20688101D01*
X9788855Y-20688101D02*
X9788855Y-20726196D01*
X9865046Y-20688101D02*
X9865046Y-20726196D01*
X10160284Y-20964292D02*
X10150760Y-20954768D01*
X10131713Y-20926196D01*
X10122189Y-20907149D01*
X10112665Y-20878577D01*
X10103141Y-20830958D01*
X10103141Y-20792863D01*
X10112665Y-20745244D01*
X10122189Y-20716673D01*
X10131713Y-20697625D01*
X10150760Y-20669054D01*
X10160284Y-20659530D01*
X10322189Y-20688101D02*
X10284093Y-20688101D01*
X10265046Y-20697625D01*
X10255522Y-20707149D01*
X10236474Y-20735720D01*
X10226951Y-20773815D01*
X10226951Y-20850006D01*
X10236474Y-20869054D01*
X10245998Y-20878577D01*
X10265046Y-20888101D01*
X10303141Y-20888101D01*
X10322189Y-20878577D01*
X10331713Y-20869054D01*
X10341236Y-20850006D01*
X10341236Y-20802387D01*
X10331713Y-20783339D01*
X10322189Y-20773815D01*
X10303141Y-20764292D01*
X10265046Y-20764292D01*
X10245998Y-20773815D01*
X10236474Y-20783339D01*
X10226951Y-20802387D01*
X10512665Y-20688101D02*
X10474570Y-20688101D01*
X10455522Y-20697625D01*
X10445998Y-20707149D01*
X10426951Y-20735720D01*
X10417427Y-20773815D01*
X10417427Y-20850006D01*
X10426951Y-20869054D01*
X10436474Y-20878577D01*
X10455522Y-20888101D01*
X10493617Y-20888101D01*
X10512665Y-20878577D01*
X10522189Y-20869054D01*
X10531713Y-20850006D01*
X10531713Y-20802387D01*
X10522189Y-20783339D01*
X10512665Y-20773815D01*
X10493617Y-20764292D01*
X10455522Y-20764292D01*
X10436474Y-20773815D01*
X10426951Y-20783339D01*
X10417427Y-20802387D01*
X10769808Y-20888101D02*
X10769808Y-20688101D01*
X10855522Y-20888101D02*
X10855522Y-20783339D01*
X10845998Y-20764292D01*
X10826951Y-20754768D01*
X10798379Y-20754768D01*
X10779332Y-20764292D01*
X10769808Y-20773815D01*
X10979332Y-20888101D02*
X10960284Y-20878577D01*
X10950760Y-20869054D01*
X10941236Y-20850006D01*
X10941236Y-20792863D01*
X10950760Y-20773815D01*
X10960284Y-20764292D01*
X10979332Y-20754768D01*
X11007903Y-20754768D01*
X11026951Y-20764292D01*
X11036474Y-20773815D01*
X11045998Y-20792863D01*
X11045998Y-20850006D01*
X11036474Y-20869054D01*
X11026951Y-20878577D01*
X11007903Y-20888101D01*
X10979332Y-20888101D01*
X11160284Y-20888101D02*
X11141236Y-20878577D01*
X11131713Y-20859530D01*
X11131713Y-20688101D01*
X11312665Y-20878577D02*
X11293617Y-20888101D01*
X11255522Y-20888101D01*
X11236474Y-20878577D01*
X11226951Y-20859530D01*
X11226951Y-20783339D01*
X11236474Y-20764292D01*
X11255522Y-20754768D01*
X11293617Y-20754768D01*
X11312665Y-20764292D01*
X11322189Y-20783339D01*
X11322189Y-20802387D01*
X11226951Y-20821435D01*
X11398379Y-20878577D02*
X11417427Y-20888101D01*
X11455522Y-20888101D01*
X11474570Y-20878577D01*
X11484093Y-20859530D01*
X11484093Y-20850006D01*
X11474570Y-20830958D01*
X11455522Y-20821435D01*
X11426951Y-20821435D01*
X11407903Y-20811911D01*
X11398379Y-20792863D01*
X11398379Y-20783339D01*
X11407903Y-20764292D01*
X11426951Y-20754768D01*
X11455522Y-20754768D01*
X11474570Y-20764292D01*
X11550760Y-20964292D02*
X11560284Y-20954768D01*
X11579331Y-20926196D01*
X11588855Y-20907149D01*
X11598379Y-20878577D01*
X11607903Y-20830958D01*
X11607903Y-20792863D01*
X11598379Y-20745244D01*
X11588855Y-20716673D01*
X11579331Y-20697625D01*
X11560284Y-20669054D01*
X11550760Y-20659530D01*
X11912665Y-20964292D02*
X11903141Y-20954768D01*
X11884093Y-20926196D01*
X11874570Y-20907149D01*
X11865046Y-20878577D01*
X11855522Y-20830958D01*
X11855522Y-20792863D01*
X11865046Y-20745244D01*
X11874570Y-20716673D01*
X11884093Y-20697625D01*
X11903141Y-20669054D01*
X11912665Y-20659530D01*
X11988855Y-20754768D02*
X11988855Y-20888101D01*
X11988855Y-20773815D02*
X11998379Y-20764292D01*
X12017427Y-20754768D01*
X12045998Y-20754768D01*
X12065046Y-20764292D01*
X12074570Y-20783339D01*
X12074570Y-20888101D01*
X12198379Y-20888101D02*
X12179331Y-20878577D01*
X12169808Y-20869054D01*
X12160284Y-20850006D01*
X12160284Y-20792863D01*
X12169808Y-20773815D01*
X12179331Y-20764292D01*
X12198379Y-20754768D01*
X12226951Y-20754768D01*
X12245998Y-20764292D01*
X12255522Y-20773815D01*
X12265046Y-20792863D01*
X12265046Y-20850006D01*
X12255522Y-20869054D01*
X12245998Y-20878577D01*
X12226951Y-20888101D01*
X12198379Y-20888101D01*
X12322189Y-20754768D02*
X12398379Y-20754768D01*
X12350760Y-20688101D02*
X12350760Y-20859530D01*
X12360284Y-20878577D01*
X12379331Y-20888101D01*
X12398379Y-20888101D01*
X12617427Y-20754768D02*
X12617427Y-20954768D01*
X12617427Y-20764292D02*
X12636474Y-20754768D01*
X12674570Y-20754768D01*
X12693617Y-20764292D01*
X12703141Y-20773815D01*
X12712665Y-20792863D01*
X12712665Y-20850006D01*
X12703141Y-20869054D01*
X12693617Y-20878577D01*
X12674570Y-20888101D01*
X12636474Y-20888101D01*
X12617427Y-20878577D01*
X12826951Y-20888101D02*
X12807903Y-20878577D01*
X12798379Y-20859530D01*
X12798379Y-20688101D01*
X12988855Y-20888101D02*
X12988855Y-20783339D01*
X12979331Y-20764292D01*
X12960284Y-20754768D01*
X12922189Y-20754768D01*
X12903141Y-20764292D01*
X12988855Y-20878577D02*
X12969808Y-20888101D01*
X12922189Y-20888101D01*
X12903141Y-20878577D01*
X12893617Y-20859530D01*
X12893617Y-20840482D01*
X12903141Y-20821435D01*
X12922189Y-20811911D01*
X12969808Y-20811911D01*
X12988855Y-20802387D01*
X13055522Y-20754768D02*
X13131712Y-20754768D01*
X13084093Y-20688101D02*
X13084093Y-20859530D01*
X13093617Y-20878577D01*
X13112665Y-20888101D01*
X13131712Y-20888101D01*
X13274570Y-20878577D02*
X13255522Y-20888101D01*
X13217427Y-20888101D01*
X13198379Y-20878577D01*
X13188855Y-20859530D01*
X13188855Y-20783339D01*
X13198379Y-20764292D01*
X13217427Y-20754768D01*
X13255522Y-20754768D01*
X13274570Y-20764292D01*
X13284093Y-20783339D01*
X13284093Y-20802387D01*
X13188855Y-20821435D01*
X13455522Y-20888101D02*
X13455522Y-20688101D01*
X13455522Y-20878577D02*
X13436474Y-20888101D01*
X13398379Y-20888101D01*
X13379331Y-20878577D01*
X13369808Y-20869054D01*
X13360284Y-20850006D01*
X13360284Y-20792863D01*
X13369808Y-20773815D01*
X13379331Y-20764292D01*
X13398379Y-20754768D01*
X13436474Y-20754768D01*
X13455522Y-20764292D01*
X13531712Y-20964292D02*
X13541236Y-20954768D01*
X13560284Y-20926196D01*
X13569808Y-20907149D01*
X13579331Y-20878577D01*
X13588855Y-20830958D01*
X13588855Y-20792863D01*
X13579331Y-20745244D01*
X13569808Y-20716673D01*
X13560284Y-20697625D01*
X13541236Y-20669054D01*
X13531712Y-20659530D01*
M02*
